<svg id="Layer_1" data-name="Layer 1" xmlns="http://www.w3.org/2000/svg" viewBox="0 0 96 96"><defs><style>.cls-1{fill:none;stroke:#000;stroke-linecap:round;stroke-linejoin:round;stroke-width:1.62px;}</style></defs><path class="cls-1" d="M63,40.92V62.78a1.36,1.36,0,0,1-1.36,1.36h-27a1.37,1.37,0,0,1-1.36-1.36V40.92a1.37,1.37,0,0,1,1.36-1.36h27A1.36,1.36,0,0,1,63,40.92Z"/><path class="cls-1" d="M55,38v1.6H52.06V38a3.9,3.9,0,0,0-7.8,0v1.6H41.32V38.13a7,7,0,0,1,6.59-7,6.87,6.87,0,0,1,5,1.91A6.77,6.77,0,0,1,55,38Z"/><path class="cls-1" d="M90.3,21.69l-.07,3.44c-.06,2.33-1.73,57.07-41.17,68.22L48,93.64l-1.06-.29C7.51,82.2,5.83,27.46,5.77,25.13L5.7,21.69l3.4-.5C27,18.54,45.42,4.36,45.61,4.21L48,2.36l2.39,1.85c.18.15,18.62,14.34,36.51,17Z"/><path d="M48.19,58.26h0a.39.39,0,0,1-.38-.31c-.92-4.7-1.57-5.42-5.8-6.44a.39.39,0,0,1,0-.76c4.23-1,4.88-1.74,5.8-6.43a.39.39,0,0,1,.38-.32.4.4,0,0,1,.39.32c.92,4.69,1.57,5.42,5.79,6.43a.39.39,0,0,1,0,.76c-4.22,1-4.87,1.74-5.79,6.44A.4.4,0,0,1,48.19,58.26Zm-4.57-7.13c2.81.84,3.81,1.9,4.57,4.92C49,53,50,52,52.76,51.13c-2.81-.84-3.8-1.9-4.57-4.92C47.43,49.23,46.43,50.29,43.62,51.13Z"/><path d="M65.19,40h0a.15.15,0,0,1-.15-.13c-.37-1.89-.63-2.18-2.33-2.59a.14.14,0,0,1-.12-.15.15.15,0,0,1,.12-.15c1.7-.41,2-.7,2.33-2.59a.16.16,0,0,1,.15-.13.17.17,0,0,1,.16.13c.37,1.89.63,2.18,2.33,2.59a.16.16,0,0,1,.12.15.15.15,0,0,1-.12.15c-1.7.41-2,.7-2.33,2.59A.16.16,0,0,1,65.19,40Zm-1.84-2.87a2.26,2.26,0,0,1,1.84,2,2.26,2.26,0,0,1,1.84-2,2.25,2.25,0,0,1-1.84-2A2.25,2.25,0,0,1,63.35,37.13Z"/></svg>