<svg id="Layer_1" data-name="Layer 1" xmlns="http://www.w3.org/2000/svg" viewBox="0 0 109 109"><defs><style>.cls-1{fill:#415464;}.cls-2{fill:#fff;}</style></defs><circle class="cls-1" cx="54.5" cy="54.5" r="54.5"/><path class="cls-2" d="M79.49,55.19l-1.71-6.34a.49.49,0,0,0-.33-.34l-6.34-1.7a.49.49,0,0,0-.46.12l-.43.43L61,38.14c0-.1,0-.2,0-.3a4.33,4.33,0,0,0-7.36-3.08l0,0L42.44,46H42.3a9.48,9.48,0,0,0-9.45,9.3V70.06H30a.47.47,0,0,0-.47.47V75a.47.47,0,0,0,.47.47H54.65a.48.48,0,0,0,.47-.47V70.53a.48.48,0,0,0-.47-.47H51.76V55.29a9.43,9.43,0,0,0-1.47-4.91L58,42.7l8.46,8.46-.4.41a.47.47,0,0,0-.13.46l1.71,6.34a.48.48,0,0,0,.33.33l6.34,1.7.12,0a.48.48,0,0,0,.46-.35.47.47,0,0,0-.34-.58l-6.08-1.62-1.56-5.82.54-.54h0l3.14-3.14h0l.56-.56L77,49.36l1.62,6.08a.49.49,0,0,0,.58.34.47.47,0,0,0,.33-.58ZM54.18,74.54H30.44V71H54.18Zm.1-39.05,0,0a3.38,3.38,0,1,1,4.78,4.78l0,0L44.89,54.45a3.38,3.38,0,0,1-4.78,0,3.38,3.38,0,0,1-1-2.39,3.34,3.34,0,0,1,1-2.39L54.29,35.49ZM50.82,55.36V70.05h-17V55.36A8.55,8.55,0,0,1,41.47,47l-2,2a4.32,4.32,0,1,0,6.11,6.11l4.06-4.06a8.53,8.53,0,0,1,1.21,4.3ZM58.63,42l1.13-1.14,0,0a4.26,4.26,0,0,0,1-1.63L69.57,48,67.1,50.49,58.64,42Z"/><path class="cls-2" d="M56.5,39.84a1.93,1.93,0,1,0-1.93-1.93A1.92,1.92,0,0,0,56.5,39.84Zm0-2.91a1,1,0,1,1-1,1A1,1,0,0,1,56.5,36.93Z"/><path class="cls-2" d="M42.44,53.92A1.93,1.93,0,1,0,40.51,52,1.94,1.94,0,0,0,42.44,53.92Zm0-2.92a1,1,0,1,1,0,2,1,1,0,0,1,0-2Z"/></svg>