<svg id="Layer_1" data-name="Layer 1" xmlns="http://www.w3.org/2000/svg" viewBox="0 0 109 109"><defs><style>.cls-1{fill:#415464;}.cls-2{fill:#fff;}</style></defs><circle class="cls-1" cx="54.5" cy="54.5" r="54.5"/><path class="cls-2" d="M79,76H62.13V69.14a17.56,17.56,0,0,0,4.21-2.08L68,68.68l.09.06.07,0a.46.46,0,0,0,.2,0h0a.47.47,0,0,0,.17,0l.06,0,.07,0a19.27,19.27,0,0,0,2.27-2,20,20,0,0,0,2-2.27l0-.06,0-.09a.29.29,0,0,0,0-.09.33.33,0,0,0,0-.1.36.36,0,0,0,0-.1.16.16,0,0,0,0-.09.41.41,0,0,0,0-.09s0,0,0,0l-1.61-1.61a17.67,17.67,0,0,0,2.68-6.44h2.27a.52.52,0,0,0,.51-.47v0a20.89,20.89,0,0,0,0-5.91l0-.06,0-.1-.06-.08-.06-.07L76.38,49l-.09,0-.1,0H73.86a17.39,17.39,0,0,0-2.66-6.46l1.59-1.6a.1.1,0,0,0,0,0,.7.7,0,0,0,.06-.09l0-.09s0-.06,0-.09a.31.31,0,0,0,0-.1.44.44,0,0,0,0-.1.36.36,0,0,0,0-.09s0,0,0-.06a20.53,20.53,0,0,0-2-2.25,20.06,20.06,0,0,0-2.27-2l-.05,0-.1,0-.09,0a.33.33,0,0,0-.1,0l-.09,0a.17.17,0,0,0-.1,0L68,36l-.06,0-1.58,1.59A17.65,17.65,0,0,0,59.88,35V32.82s0,0,0,0a.49.49,0,0,0-.32-.54h0a.25.25,0,0,0-.11,0,19.85,19.85,0,0,0-6,0l-.06,0-.1,0-.08,0a.6.6,0,0,1-.08.08.43.43,0,0,0,0,.07.31.31,0,0,0,0,.1s0,0,0,.08,0,.05,0,.08V35a17.71,17.71,0,0,0-6.47,2.68L45,36.06,45,36,44.87,36l-.09,0-.1,0a.33.33,0,0,0-.1,0l-.09,0-.1,0,0,0a19.79,19.79,0,0,0-2.27,2,21.67,21.67,0,0,0-2,2.25l0,.06a.3.3,0,0,0,0,.1.29.29,0,0,0,0,.09s0,.06,0,.1,0,.06,0,.09a.3.3,0,0,0,0,.1.35.35,0,0,0,.05.08s0,0,0,.06l1.58,1.58A17.5,17.5,0,0,0,39.09,49H36.77l-.1,0-.09.05-.08,0a.46.46,0,0,1-.07.07l0,.08,0,.1,0,.06a21.25,21.25,0,0,0,0,6l0,.06a.32.32,0,0,0,0,.09.22.22,0,0,0,0,.08l.06.07a.24.24,0,0,0,.08.06l.08,0a.32.32,0,0,0,.14,0H39.1a17.88,17.88,0,0,0,1.22,3.84v4.14H33a.51.51,0,0,0-.52.51V76H30a.52.52,0,1,0,0,1H79a.52.52,0,1,0,0-1ZM40,55.19s0,0,0,0a.3.3,0,0,0,0-.1.35.35,0,0,0,0-.08l-.07-.07-.08,0-.09-.05-.1,0H37.3a19.12,19.12,0,0,1,0-4.78h2.21a.41.41,0,0,0,.19,0l.06,0,.1-.07,0-.06a.35.35,0,0,0,.06-.09l0-.07s0,0,0-.07a16.52,16.52,0,0,1,2.82-6.83l0-.07,0-.07a.5.5,0,0,0,0-.12.22.22,0,0,0,0-.08l0-.12a.64.64,0,0,1,0-.07l-.07-.1,0,0-1.56-1.56a20.55,20.55,0,0,1,1.58-1.8,20.22,20.22,0,0,1,1.8-1.57l1.56,1.55.09.06.06,0a.54.54,0,0,0,.22,0h0l.15,0,.06,0,.06,0a16.52,16.52,0,0,1,6.84-2.83l.06,0,.09,0,.08,0,.07-.07.06-.08,0-.09s0-.07,0-.1,0,0,0-.06V33.19a19,19,0,0,1,4.76,0v2.19s0,0,0,.06a.38.38,0,0,0,0,.1l0,.09.06.08.07.07.08,0,.1,0,.05,0a16.44,16.44,0,0,1,6.85,2.84l.07,0,0,0a.58.58,0,0,0,.18,0h0a.5.5,0,0,0,.21,0l.06,0a.22.22,0,0,0,.09-.07l1.57-1.56a20.55,20.55,0,0,1,1.8,1.58,22.12,22.12,0,0,1,1.58,1.8l-1.57,1.57s0,0,0,0l0,.08,0,.1s0,.05,0,.08a.48.48,0,0,0,0,.12.31.31,0,0,0,0,.08.42.42,0,0,0,0,.1s0,0,0,0a16.52,16.52,0,0,1,2.82,6.83.14.14,0,0,1,0,.06l0,.08.06.09,0,.06a.33.33,0,0,0,.1.06l.06,0a.45.45,0,0,0,.16,0h2.25a19.6,19.6,0,0,1,0,4.78H73.38l-.1,0-.1,0-.07.05L73,55,73,55l0,.12s0,0,0,0A16.72,16.72,0,0,1,70.1,62l0,0,0,.1s0,.06,0,.09v.11a.24.24,0,0,0,0,.08.3.3,0,0,0,0,.1.35.35,0,0,0,.05.08l0,0,1.59,1.58a17.64,17.64,0,0,1-3.38,3.38L66.77,66a.1.1,0,0,0,0,0l-.08,0-.1,0h-.09a.14.14,0,0,0-.09,0l-.1,0-.09,0-.06,0a16.35,16.35,0,0,1-4,2.06V64.28a.51.51,0,0,0-.51-.51H54.27v-3.6a8.24,8.24,0,0,0,2.21.3,8.13,8.13,0,1,0-8.08-8.9H40.84a.51.51,0,0,0-.52.51v4.43C40.21,56.08,40.11,55.64,40,55.19Zm8.15,9.61V76H46.41V64.8Zm-2.28-1H41.35V52.6h4.08V55a.52.52,0,0,0,.52.52h2.69a.52.52,0,0,0,.52-.52V52.6h4.08v6.86h0v4.3H45.9Zm7.86-12.2H49.44a7.09,7.09,0,1,1,7,7.87,7.15,7.15,0,0,1-2.21-.36v-7A.51.51,0,0,0,53.76,51.57Zm-7.3,1h1.67v1.84H46.46Zm7.86,12.2H56v1.84H54.32Zm-14,0v1.84H38.61V64.8ZM33.49,76V64.8h4.09v2.36a.51.51,0,0,0,.51.51h2.69a.51.51,0,0,0,.52-.51V64.8h4.08V76Zm15.72,0V64.8h4.08v2.36a.51.51,0,0,0,.52.51H56.5a.51.51,0,0,0,.51-.51V64.8H61.1V76Z"/></svg>