<svg id="Layer_1" data-name="Layer 1" xmlns="http://www.w3.org/2000/svg" viewBox="0 0 109 109"><defs><style>.cls-1{fill:#415464;}.cls-2{fill:#fff;fill-rule:evenodd;}</style></defs><circle class="cls-1" cx="54.5" cy="54.5" r="54.5"/><path class="cls-2" d="M44.24,46.21c.12.22.25.44.38.66l.45.8c.1.2.18.33.24.43a1.83,1.83,0,0,1,.34.93,1.61,1.61,0,0,1-.26.83c-.06.12-.14.27-.26.56a6,6,0,0,0-.32.87c-.21.72-.28.93-1.08,1.15l-.69.18c-.53.14-1.2.31-1.64.44v2.88c.34.1.81.21,1.25.32s1,.24,1.23.33c.65.23.76.6,1,1.24a4.81,4.81,0,0,0,.28.74c.1.24.19.42.26.56a1.51,1.51,0,0,1,.26.86,1.79,1.79,0,0,1-.37.94l-.25.44,0,.06-.23.4c-.18.29-.39.64-.54.92l2,2,.65-.38h0l.21-.12,0,0c.33-.19.55-.32.71-.43a2.28,2.28,0,0,1,1.07-.47h0a1.5,1.5,0,0,1,1,.27c.16.08.38.19.7.33h0l.3.1h0a2.86,2.86,0,0,1,1.15.55l0,.06h0a6.08,6.08,0,0,1,.65,1.92c.08.36.17.72.25,1h2.88c.08-.28.17-.65.26-1a5.7,5.7,0,0,1,.63-1.89l.07-.07a2.89,2.89,0,0,1,1.18-.57,3,3,0,0,0,.36-.12c.24-.1.45-.21.62-.3l.06,0a1.56,1.56,0,0,1,1-.26,2.72,2.72,0,0,1,1.16.53l.63.38h0l.19.12.06,0,.6.36,2-2c-.13-.25-.32-.55-.48-.82s-.25-.41-.36-.62-.17-.31-.25-.44a1.64,1.64,0,0,1-.34-.92,1.42,1.42,0,0,1,.25-.81h0c.07-.13.16-.31.28-.58a5.25,5.25,0,0,0,.31-.86c.22-.72.28-.94,1.09-1.16l.72-.19c.52-.14,1.17-.3,1.6-.43V53.06l-1.13-.3c-.28-.07-.53-.13-.68-.18l-.21,0-.46-.13h0c-.64-.22-.69-.36-.84-.89h0l0-.07,0,0a7.36,7.36,0,0,0-.63-1.52,1.52,1.52,0,0,1-.25-.67c0-.43.09-.67.45-1.29,0,0,0,0,0,0l.14-.23.78-1.42-2-2c-.36.19-.84.48-1.16.66l0,0-.22.13h0l-.36.2a1.87,1.87,0,0,1-1,.39,1.6,1.6,0,0,1-.87-.27h0c-.15-.08-.34-.18-.53-.26a6.37,6.37,0,0,0-.88-.32c-.71-.21-.92-.27-1.14-1.08-.06-.19-.11-.41-.18-.66-.13-.52-.31-1.21-.44-1.65H53.05c-.08.27-.16.64-.25,1a6,6,0,0,1-.64,1.9l-.06.06h0a3.74,3.74,0,0,1-1.3.61,4.24,4.24,0,0,0-.43.16l-.58.28a1.88,1.88,0,0,1-.53.21h0a1.12,1.12,0,0,1-.93-.24l0,0L48,45.25h0c-.45-.26-1.3-.76-1.81-1ZM76.81,59.74a3.4,3.4,0,0,1-3.39,3.39l-.35,0a20.6,20.6,0,0,1-7.27,8.47A20.31,20.31,0,0,1,55.35,75v4.26a.84.84,0,0,1-.85.84,25.54,25.54,0,0,1-25-20.13.83.83,0,0,1,.65-1,.84.84,0,0,1,1,.64A23.87,23.87,0,0,0,53.65,78.35V74.12a.84.84,0,0,1,.85-.84,18.82,18.82,0,0,0,17-10.76,2.8,2.8,0,0,1-.46-.39,3.38,3.38,0,1,1,4.78-4.79,3.39,3.39,0,0,1,1,2.4Zm-2.19,1.2a1.71,1.71,0,0,0,.5-1.2,1.7,1.7,0,0,0-3.4,0,1.67,1.67,0,0,0,.5,1.2,1.69,1.69,0,0,0,2.4,0ZM39,49.26a3.35,3.35,0,0,1-1,2.39,3.39,3.39,0,0,1-2.39,1,3.39,3.39,0,0,1,0-6.78l.35,0A20.52,20.52,0,0,1,53.65,34V29.79a.85.85,0,0,1,.85-.85,25.56,25.56,0,0,1,25,20.14.84.84,0,0,1-1.65.36A23.87,23.87,0,0,0,55.35,30.65v4.29h0V35l0,.09h0v0l0,.09,0,0h0v0h0l0,0h0l0,.06h0l0,0-.08.06v0h-.07l0,0-.1,0H54.7l-.08,0-.1,0,0,0h0a18.66,18.66,0,0,0-10.34,3.11,18.86,18.86,0,0,0-6.63,7.64,4.42,4.42,0,0,1,.47.39,3.39,3.39,0,0,1,1,2.4Zm-2.19,1.2a1.73,1.73,0,0,0,.5-1.2,1.71,1.71,0,0,0-.5-1.2,1.69,1.69,0,0,0-2.4,0,1.71,1.71,0,0,0-.5,1.2,1.68,1.68,0,0,0,.5,1.2,1.71,1.71,0,0,0,2.4,0ZM54.5,48.31a6.21,6.21,0,1,1-4.37,1.82A6.16,6.16,0,0,1,54.5,48.31Zm3.18,3A4.49,4.49,0,1,1,54.5,50,4.5,4.5,0,0,1,57.68,51.32ZM43.15,47.71c-.22-.39-.44-.77-.67-1.24a.84.84,0,0,1,.13-1l2.85-2.84a.85.85,0,0,1,.82-.22,25.23,25.23,0,0,1,2.61,1.4h0l.17.1c.13-.07.31-.16.63-.3a4.84,4.84,0,0,1,.59-.21c.24-.09.5-.17.6-.2L51.16,42a10.44,10.44,0,0,1,.52-1.77.84.84,0,0,1,.78-.53h4.07a.85.85,0,0,1,.74.44A19.41,19.41,0,0,1,58,42.64c.06.25.11.46.15.58v0a0,0,0,0,1,0,0,8.46,8.46,0,0,1,1.09.4l.61.29h0c.1.06,0,.09.07.09s0-.05.18-.16l.38-.22h0l.22-.13,0,0a17.43,17.43,0,0,1,1.85-1,.85.85,0,0,1,.93.18l2.84,2.86h0a.83.83,0,0,1,.15,1l-1.09,2h0l-.14.25,0,0c-.16.27-.25.16-.24.27s0,0,0,0a8.56,8.56,0,0,1,.76,1.8l.14,0,.27.07.63.16a12.86,12.86,0,0,1,2,.6.84.84,0,0,1,.44.74v4a.84.84,0,0,1-.45.82,18.45,18.45,0,0,1-2.41.71l-.67.17h.06a8.49,8.49,0,0,1-.39,1.08c-.13.3-.25.52-.33.68h0c0,.05,0,0-.06,0h0v0c0,.1,0,0,.11.09s.14.24.27.49l.33.54a8.8,8.8,0,0,1,.86,1.65h0a.84.84,0,0,1-.22.83l-2.82,2.82a.85.85,0,0,1-.85.24,8.17,8.17,0,0,1-1.43-.74l-.06,0L61,65.72h0l-.65-.4L60,65.06l-.15.09c-.16.08-.37.19-.71.34a4.8,4.8,0,0,1-.54.19l-.45.14c0,.16-.16.65-.28,1.16a9,9,0,0,1-.57,1.87h0a.85.85,0,0,1-.74.43h-4a.82.82,0,0,1-.76-.44A9,9,0,0,1,51.17,67c-.13-.52-.25-1-.29-1.18l-.41-.13h0a4.56,4.56,0,0,1-.44-.14l-.05,0c-.37-.16-.63-.29-.81-.39s0-.1-.06-.09h0s-.09.07-.34.23l-.76.45h0l-.21.13h0a8.83,8.83,0,0,1-1.46.75h0a.86.86,0,0,1-.83-.21l-2.84-2.86a.84.84,0,0,1-.22-.82A10,10,0,0,1,43.31,61l.22-.37,0-.05.28-.48c.09-.14.13,0,.13-.12s0,0-.08-.05-.18-.34-.31-.64-.26-.68-.34-.92.25-.1.1-.15-.61-.17-1.08-.28a12.35,12.35,0,0,1-2.08-.63.83.83,0,0,1-.45-.74v-4a.87.87,0,0,1,.45-.83A22,22,0,0,1,42.62,51l.62-.16h-.05a7.13,7.13,0,0,1,.39-1.07c.11-.26.22-.48.31-.65s.07.06.07,0,0,0-.12-.11-.17-.29-.26-.46c-.2-.37-.31-.58-.43-.79Zm.13,3.11h-.07S43.37,50.8,43.28,50.82Zm22.44,7.35h.06S65.65,58.19,65.72,58.17Zm-7.55-14.9v-.08S58.2,43.36,58.17,43.27Z"/></svg>