<svg id="Layer_1" data-name="Layer 1" xmlns="http://www.w3.org/2000/svg" viewBox="0 0 109 109"><defs><style>.cls-1{fill:#415464;}.cls-2{fill:#fff;}</style></defs><circle class="cls-1" cx="54.5" cy="54.5" r="54.5"/><path class="cls-2" d="M70.5,40.38l-3.53-2h0l-3.39-2,.31,2.19a.49.49,0,0,1-.53.55l-10.25-.58v3.67l10.26-.59a.5.5,0,0,1,.52.56c-.1.73-.2,1.47-.31,2.19Zm-3-2.88L71.73,40a.48.48,0,0,1,0,.84L63.2,45.74a.49.49,0,0,1-.74-.49l.36-2.6L56.13,43v5.19a.5.5,0,0,1-.49.49H47.51a.49.49,0,0,1-.49-.49V35.74a4.56,4.56,0,1,1,9.12,0v2l6.69.38-.35-2.6a.49.49,0,0,1,.73-.49l4.25,2.46ZM55.14,43.09l-2.47.15a.48.48,0,0,1-.55-.49V38h0a.49.49,0,0,1,.51-.49l2.51.15v-2a3.57,3.57,0,1,0-7.14,0v12h7.16V43.09ZM49,40.29a.49.49,0,0,1,1,0v.76a.49.49,0,0,1-1,0ZM45.36,51.61H33.79v8.2H45.36Zm-12.06-1H45.85a.49.49,0,0,1,.49.49v8.69h2.83a.5.5,0,0,1,.5.49v5.47h1.85V62.29A.49.49,0,0,1,52,61.8h2.87V58.32a.49.49,0,0,1,.49-.49h3.87V54.35a.49.49,0,0,1,.49-.49h7.73a.49.49,0,0,1,.49.49v3.48h2.87a.49.49,0,0,1,.49.49V61.8H75.2a.49.49,0,0,1,.49.49v3.48H79a.5.5,0,0,1,.41.77L71.83,77.26a.52.52,0,0,1-.41.23l-37.52.33h0a.49.49,0,0,1-.42-.23l-3.88-6.2a.55.55,0,0,1-.1-.31V60.29A.49.49,0,0,1,30,59.8h2.83V51.11a.47.47,0,0,1,.48-.48ZM67,57.83v-3H60.22v3Zm-4.36,1H55.86v3h6.75Zm.49,4H60.23v3H67v-3Zm-3.85,0H52.5v3h6.75Zm11.59,0H68v3h6.74v-3Zm-.49-4H63.59v3h6.76ZM30.47,69.74H75.94l2.13-3H49.17a.5.5,0,0,1-.49-.49V60.78H30.47Zm44.78,1H30.47v.22l3.69,5.89,37-.33Z"/></svg>