<svg id="Layer_1" data-name="Layer 1" xmlns="http://www.w3.org/2000/svg" viewBox="0 0 109 109"><defs><style>.cls-1{fill:#415464;}.cls-2{fill:#fff;}</style></defs><circle class="cls-1" cx="54.5" cy="54.5" r="54.5"/><path class="cls-2" d="M72.74,54.21a1.05,1.05,0,0,0-1.47,0l-2.35,2.34a1.06,1.06,0,0,0,0,1.48l.44.44-.36.38c-.53.55-1,.24-2,.15a5.66,5.66,0,0,0-3,.59,3.09,3.09,0,0,0-1-.3,7.5,7.5,0,0,0-.82,0V45.87a4.5,4.5,0,0,0-4.49-4.49H56.32V36.63a3.78,3.78,0,0,0-3.78-3.77H39.09a3.78,3.78,0,0,0-3.78,3.78v4.74H34a4.5,4.5,0,0,0-4.49,4.49V61A4.5,4.5,0,0,0,34,65.52H55.25a4.41,4.41,0,0,1,.09.73v.35l-1.05,1.05a1.74,1.74,0,0,0,0,2.45,1.67,1.67,0,0,0,.94.48,1.78,1.78,0,0,0,.46,1.78,1.82,1.82,0,0,0,1.67.5,1.78,1.78,0,0,0,.52,1.1,1.81,1.81,0,0,0,1.62.51A1.88,1.88,0,0,0,60,75.61a1.84,1.84,0,0,0,2.59,0l.54-.54A1.83,1.83,0,0,0,65.68,75a1.88,1.88,0,0,0,.46-.78A1.81,1.81,0,0,0,69.23,73a1.72,1.72,0,0,0,1.43-.5,1.75,1.75,0,0,0,.5-1.48,2,2,0,0,0,1.36-.54,2,2,0,0,0,.35-2.5,2.52,2.52,0,0,0,.87-2.26c-.12-1,.72-1.23,1.16-1.7l.38.39a1.06,1.06,0,0,0,1.46,0l2.43-2.26a1.06,1.06,0,0,0,.33-.75,1,1,0,0,0-.31-.76ZM36.29,36.63a2.79,2.79,0,0,1,2.8-2.79H52.54a2.79,2.79,0,0,1,2.8,2.79v4.75h-3V37.29a.49.49,0,0,0-.49-.49H39.74a.49.49,0,0,0-.49.49v4.09h-3Zm15.1,1.15v3.6H40.23v-3.6ZM30.48,45.87A3.52,3.52,0,0,1,34,42.35H57.64a3.52,3.52,0,0,1,3.51,3.52v3.45a2.69,2.69,0,0,1-1.52,2.43,30.65,30.65,0,0,1-11.12,2.86l-.16-1.88a2.54,2.54,0,0,0-5.07,0l-.16,1.88A30.65,30.65,0,0,1,32,51.75a2.69,2.69,0,0,1-1.52-2.43ZM60,56.49l-2.42-2.26a1,1,0,0,0-.71-.28,26,26,0,0,0,3.23-1.32,3.86,3.86,0,0,0,1.09-.82v7.47a2.64,2.64,0,0,1-1.63-.81L60,58a1,1,0,0,0,.31-.76,1,1,0,0,0-.34-.75Zm-12.3-.13a1.56,1.56,0,0,1-1.56,1.69h-.57A1.57,1.57,0,0,1,44,56.36l.29-3.55a1.57,1.57,0,0,1,3.13,0ZM34,64.54A3.52,3.52,0,0,1,30.48,61V51.81a3.68,3.68,0,0,0,1.08.82,31.51,31.51,0,0,0,11.48,3l-.06.69A2.55,2.55,0,0,0,45.52,59h.58a2.55,2.55,0,0,0,2.54-2.75l-.06-.69a33.72,33.72,0,0,0,7.62-1.43l-.12.1-6.36,6.35a1,1,0,0,0,0,1.48l2.34,2.34.13.11Zm18.77-.81-2.34-2.34a0,0,0,0,1,0,0,.06.06,0,0,1,0-.05L56.78,55h.09l2.43,2.26a.08.08,0,0,1,0,0s0,0,0,.05l-6.45,6.43a.06.06,0,0,1-.09,0Zm.65.81.13-.11.71-.7a4.58,4.58,0,0,1,.62.81ZM55,69.41a.75.75,0,0,1,0-1.07l1.3-1.3a.76.76,0,1,1,1.07,1.07l-1.31,1.3A.75.75,0,0,1,55,69.41Zm2.59,2.26a.87.87,0,0,1-1.2,0,.85.85,0,0,1,0-1.2l2-2a.85.85,0,1,1,1.2,1.2Zm2.19,1.6a.85.85,0,0,1-1.2,0,.84.84,0,0,1,0-1.19c1.15-1.07,1.26-1.49,1.83-1.49a.84.84,0,0,1,.61.25A.85.85,0,0,1,61,72l-1.24,1.23Zm2.84.94-.69.7a.87.87,0,0,1-1.2,0,.84.84,0,0,1,0-1.19l.71-.72a.85.85,0,0,1,1.19,1.21Zm9.24-4.47a1,1,0,0,1-1.43,0l-2.59-2.59a.49.49,0,0,0-.69,0,.47.47,0,0,0,0,.69L70,70.65a.8.8,0,0,1-1.13,1.13L66,69a.47.47,0,0,0-.69,0,.49.49,0,0,0,0,.69l2.7,2.7a.83.83,0,0,1,0,1.18.85.85,0,0,1-1.17,0l-2.71-2.71a.49.49,0,0,0-.69,0,.5.5,0,0,0,0,.7L65,73.05a.88.88,0,0,1-1.22,1.27l-.05,0a1.82,1.82,0,0,0-.42-2,1.8,1.8,0,0,0-1.11-.5,1.83,1.83,0,0,0-.5-1.68,1.71,1.71,0,0,0-1-.49,1.82,1.82,0,0,0-2.2-2.36,1.73,1.73,0,0,0-.48-1,1.81,1.81,0,0,0-1.75-.41A4.6,4.6,0,0,0,55,63.05l3.88-3.88a3.52,3.52,0,0,0,2.74,1.08,5.89,5.89,0,0,1,1.26,0h.05l-.33.28L62,61a2.18,2.18,0,0,0-.47,2.57L62.7,66a1.07,1.07,0,0,0,1.41.51c.75-.34,1.54-1.13,1-3a.19.19,0,0,1,.06-.2l.6-.52a.2.2,0,0,1,.26,0l5.82,5.48a1,1,0,0,1,0,1.51Zm.91-3.93a1.56,1.56,0,0,1-.53,1.42L66.72,62a1.2,1.2,0,0,0-.8-.32,1.17,1.17,0,0,0-.77.29l-.6.52a1.17,1.17,0,0,0-.36,1.2c.4,1.49-.22,1.76-.48,1.87a.09.09,0,0,1-.13,0l-1.16-2.37a1.22,1.22,0,0,1,.26-1.42A5.18,5.18,0,0,1,66.86,60c1,.08,1.92.51,2.84-.45l.35-.37,4.14,4.14c-.29.35-1.61.93-1.43,2.51Zm5.73-4.38C76,63.71,76.06,63.78,76,63.69c-6.19-6.19-5.9-5.89-6.35-6.35a.06.06,0,0,1,0-.09L72,54.91l0,0,0,0,6.45,6.42s0,0,0,.05a.05.05,0,0,1,0,0Z"/></svg>