<svg id="Layer_1" data-name="Layer 1" xmlns="http://www.w3.org/2000/svg" viewBox="0 0 109 109"><defs><style>.cls-1{fill:#415464;}.cls-2{fill:#fff;fill-rule:evenodd;}</style></defs><circle class="cls-1" cx="54.5" cy="54.5" r="54.5"/><path class="cls-2" d="M46.37,40.75v8.1h5.49a1.51,1.51,0,0,1,1.51-1.41h3.26a1.52,1.52,0,0,1,1.51,1.41h8.49a8.31,8.31,0,0,1,8.3,8.3v11.1a1.52,1.52,0,0,1,1.41,1.51V73a1.52,1.52,0,0,1-1.41,1.51v2.74a.73.73,0,0,1-.73.73H64.35a.73.73,0,0,1-.72-.73V74.53A1.52,1.52,0,0,1,62.22,73V69.75a1.51,1.51,0,0,1,1.41-1.5v-8.1H58.14a1.51,1.51,0,0,1-1.51,1.41H53.37a1.52,1.52,0,0,1-1.51-1.41H43.37a8.31,8.31,0,0,1-8.3-8.3V40.75a1.52,1.52,0,0,1-1.41-1.51V36a1.51,1.51,0,0,1,1.41-1.51V31.73A.73.73,0,0,1,35.8,31h9.84a.73.73,0,0,1,.73.73v2.74A1.52,1.52,0,0,1,47.78,36v3.26a1.51,1.51,0,0,1-1.41,1.51Zm5.49,9.56H45.64a.73.73,0,0,1-.72-.73V40.75H36.53v11.1a6.86,6.86,0,0,0,6.84,6.85h8.49ZM46.32,39.24v-3.3H35.14v3.34H46.31s0,0,0,0Zm-9.79-4.77h8.39v-2H36.53ZM73.47,74.53H65.08v2h8.39Zm-8.39-6.28h8.39V57.15a6.86,6.86,0,0,0-6.84-6.85H58.14V58.7h6.21a.72.72,0,0,1,.73.72ZM74.88,73l0-3.3H63.69v3.34H74.86a.08.08,0,0,0,0,0ZM56.63,48.9h-3.3V60.09h3.34V48.91Z"/></svg>