<svg id="Layer_1" data-name="Layer 1" xmlns="http://www.w3.org/2000/svg" viewBox="0 0 109 109"><defs><style>.cls-1{fill:#415464;}.cls-2{fill:#fff;}</style></defs><circle class="cls-1" cx="54.5" cy="54.5" r="54.5"/><path class="cls-2" d="M37,67.36a.44.44,0,0,1-.62,0,.44.44,0,0,1,0-.63c.75-.67,1.52-1.45,2.31-2.25C41,62.1,43.49,59.6,45.59,59.6H58a4.87,4.87,0,0,1,2.56.69,2.09,2.09,0,0,1,0,3.74,4.78,4.78,0,0,1-2.56.69H49.72a.45.45,0,1,1,0-.89H58a3.83,3.83,0,0,0,2.07-.55,1.4,1.4,0,0,0,.76-1.12A1.43,1.43,0,0,0,60.1,61,3.94,3.94,0,0,0,58,60.5H45.59c-1.73,0-4.06,2.36-6.25,4.57C38.52,65.9,37.72,66.71,37,67.36Z"/><path class="cls-2" d="M42.66,73A.46.46,0,0,1,42,73a.44.44,0,0,1,0-.63l.69-.67c1.58-1.51,3-2.92,5.47-2.92H59.76c3.67,0,7.43-4.5,10.45-8.1l1.2-1.41a4.73,4.73,0,0,0,1.1-2,1.31,1.31,0,0,0-.34-1.23,1.43,1.43,0,0,0-1.41-.18,6.78,6.78,0,0,0-2.46,1.41L61,63.74a.43.43,0,0,1-.62,0,.46.46,0,0,1,0-.64l7.33-6.46A7.93,7.93,0,0,1,70.53,55a2.25,2.25,0,0,1,2.27.42,2.16,2.16,0,0,1,.59,2,5.63,5.63,0,0,1-1.3,2.39L70.9,61.25c-3.14,3.75-7.05,8.42-11.14,8.42H48.21c-2.08,0-3.42,1.29-4.85,2.67Z"/><path class="cls-2" d="M32.43,67.25,34,65.72a1.48,1.48,0,0,1,1-.42,1.46,1.46,0,0,1,1,.42l7.61,7.61a1.6,1.6,0,0,1,.42,1h0a1.52,1.52,0,0,1-.39,1c-.5.54-1,1.14-1.53,1.66a1.43,1.43,0,0,1-2,.07L32.4,69.33a1.42,1.42,0,0,1-.42-1,1.46,1.46,0,0,1,.42-1Zm2.17-.89L33,67.92a.54.54,0,0,0-.17.39.56.56,0,0,0,.17.4l7.75,7.75a.51.51,0,0,0,.34.13.58.58,0,0,0,.36-.17L43,74.78a.59.59,0,0,0,.15-.42A.6.6,0,0,0,43,74l-7.59-7.59a.54.54,0,0,0-.79,0Z"/><path class="cls-2" d="M54,36a5.8,5.8,0,1,1-4.2,10l0,0A5.8,5.8,0,0,1,54,36Zm3.58,2.23a5.05,5.05,0,0,0-7.17,7.11l0,0a5.44,5.44,0,0,0,7.13,0,5,5,0,0,0,1.34-3.58A4.91,4.91,0,0,0,57.54,38.22Z"/><path class="cls-2" d="M44.7,56.37a.45.45,0,1,1-.89,0,10.86,10.86,0,0,1,1.28-5.31,9.56,9.56,0,0,1,3.7-3.71.44.44,0,0,1,.59.14,4.05,4.05,0,0,0,1.75,1.43h0a6.38,6.38,0,0,0,2.6.52,6.89,6.89,0,0,0,2.63-.51,7,7,0,0,0,2.23-1.52.45.45,0,0,1,.55-.06,9.51,9.51,0,0,1,3.69,3.7,11.08,11.08,0,0,1,1.27,5.31.45.45,0,0,1-.45.45.45.45,0,0,1-.45-.45,10.06,10.06,0,0,0-1.16-4.88A8.61,8.61,0,0,0,59,48.3a7.89,7.89,0,0,1-2.27,1.46,7.67,7.67,0,0,1-3,.59,7.08,7.08,0,0,1-3-.61h0a5.41,5.41,0,0,1-1.88-1.41,8.6,8.6,0,0,0-3,3.16A10.17,10.17,0,0,0,44.7,56.37Z"/><path class="cls-2" d="M40.47,31.5a5.59,5.59,0,0,1,4,1.54l0,0a6,6,0,0,1,0,8.07,5.55,5.55,0,0,1-4,1.54,5.59,5.59,0,1,1,0-11.18Zm3.41,2.18a5.18,5.18,0,1,0,1.28,3.41,4.71,4.71,0,0,0-1.28-3.41Z"/><path class="cls-2" d="M31.59,51.09a.46.46,0,0,1-.45.45.45.45,0,0,1-.45-.45A10.52,10.52,0,0,1,31.92,46a9.25,9.25,0,0,1,3.56-3.57.46.46,0,0,1,.61.16,3.82,3.82,0,0,0,1.66,1.35,6.11,6.11,0,0,0,2.51.5,6.68,6.68,0,0,0,2.51-.48,6.51,6.51,0,0,0,2.14-1.46.45.45,0,0,1,.64,0,.47.47,0,0,1,0,.64,7.6,7.6,0,0,1-2.44,1.64,7.43,7.43,0,0,1-2.85.56,7.14,7.14,0,0,1-2.88-.58,5.05,5.05,0,0,1-1.8-1.35,8.49,8.49,0,0,0-2.88,3A9.72,9.72,0,0,0,31.59,51.09Z"/><path class="cls-2" d="M67.59,32.4a4.67,4.67,0,0,0-3.41,1.28l0,0a5.18,5.18,0,1,0,3.44-1.31Zm-4,.64a5.72,5.72,0,0,1,8.08,8.1,5.72,5.72,0,0,1-8.11-8.07Z"/><path class="cls-2" d="M77.36,51.09a.45.45,0,0,1-.45.45.46.46,0,0,1-.45-.45,9.61,9.61,0,0,0-1.11-4.68,8.32,8.32,0,0,0-2.88-3,5.05,5.05,0,0,1-1.8,1.35,7.11,7.11,0,0,1-2.88.58,7.43,7.43,0,0,1-2.85-.56,7.55,7.55,0,0,1-2.43-1.64.47.47,0,0,1,0-.64.44.44,0,0,1,.63,0,6.32,6.32,0,0,0,4.65,1.94,6.15,6.15,0,0,0,2.52-.5A3.94,3.94,0,0,0,72,42.57a.46.46,0,0,1,.61-.16A9.29,9.29,0,0,1,76.13,46,10.52,10.52,0,0,1,77.36,51.09Z"/></svg>