<svg id="Layer_1" data-name="Layer 1" xmlns="http://www.w3.org/2000/svg" viewBox="0 0 109 109"><defs><style>.cls-1{fill:#415464;}.cls-2{fill:#fff;fill-rule:evenodd;}</style></defs><circle class="cls-1" cx="54.5" cy="54.5" r="54.5"/><path class="cls-2" d="M64,56.88l-.14,0L44.64,60.6a3.83,3.83,0,0,0-3.26,3.57v0a.79.79,0,0,0,.38.68,3.91,3.91,0,0,0,1.55,2.79l2.41,1.44a.8.8,0,0,0,1.1-.27.81.81,0,0,0-.27-1.09l-2.42-1.45A2.4,2.4,0,0,1,43,64.24a2.24,2.24,0,0,1,1.9-2.07h0l19.3-3.69A.8.8,0,0,0,64,56.88Z"/><path class="cls-2" d="M45,31v9.16a.79.79,0,0,0,.94.79,47.69,47.69,0,0,1,17.22,0,.79.79,0,0,0,.94-.79V31H62.47v8.21a48.88,48.88,0,0,0-15.92,0l0-8.22Z"/><path class="cls-2" d="M64,56.88l-.14,0L44.6,60.6a4.14,4.14,0,0,0-2.05,1,3.75,3.75,0,0,0-1.17,2.57,3.89,3.89,0,0,0,1.93,3.51l2.41,1.44a.8.8,0,0,0,1.1-.27.81.81,0,0,0-.27-1.09l-2.42-1.45a2.28,2.28,0,0,1-1.16-2,2,2,0,0,1,.65-1.5,2.71,2.71,0,0,1,1.29-.61l19.3-3.69A.8.8,0,0,0,64,56.88Z"/><path class="cls-2" d="M62.05,54.11a.8.8,0,0,0-.19,1.55l2.55.86h0A2.36,2.36,0,0,1,66,58.79V59a2.37,2.37,0,0,1-1.94,2.35l-18.51,3.5a.79.79,0,1,0,.22,1.57h.08l18.5-3.49A4,4,0,0,0,67.64,59v-.23A4,4,0,0,0,64.91,55l-2.54-.86a.85.85,0,0,0-.32,0Z"/><path class="cls-2" d="M46.13,39.36v8.88h1.6V39.36Z"/><path class="cls-2" d="M61.27,39.36v5.19h1.6V39.36Z"/><path class="cls-2" d="M46.13,52.51l0,8.93h1.58V52.51Z"/><path class="cls-2" d="M61.27,48.52v10h1.6v-10Z"/><path class="cls-2" d="M64.24,43.52,44.15,48.05a3.59,3.59,0,0,0-2.79,3.5v0a3.6,3.6,0,0,0,2,3.21l3.25,1.62A.8.8,0,0,0,47.29,55l-3.24-1.61A2,2,0,0,1,43,51.58v0a2,2,0,0,1,1.55-1.94l20.08-4.53A1.17,1.17,0,0,1,66,46.23a1.14,1.14,0,0,1-.89,1.08h0L46,51.73a.8.8,0,0,0,.29,1.57l.06,0,19.16-4.42a2.71,2.71,0,0,0,2.17-2.6v0a2.8,2.8,0,0,0-3.4-2.72Z"/><path class="cls-2" d="M46.13,65.25V70h1.6V65.25Z"/><path class="cls-2" d="M61.27,62.07v8h1.6v-8Z"/><path class="cls-2" d="M44.55,68.44a2.41,2.41,0,0,0-2.4,2.39V78h1.6V70.83a.79.79,0,0,1,.8-.8h19.9a.79.79,0,0,1,.8.8V78h1.59V70.83a2.4,2.4,0,0,0-2.39-2.39Z"/></svg>