<svg id="Layer_1" data-name="Layer 1" xmlns="http://www.w3.org/2000/svg" viewBox="0 0 109 109"><defs><style>.cls-1{fill:#415464;}.cls-2{fill:#fff;}</style></defs><circle class="cls-1" cx="54.5" cy="54.5" r="54.5"/><path class="cls-2" d="M30.12,48.09a.63.63,0,0,0,0,1.25h5.34v.58a2.51,2.51,0,0,0,2.5,2.5h3.21a2.5,2.5,0,0,0,2.5-2.5v-.58H47.5A11.58,11.58,0,0,1,59.07,60.91V65.8a2.51,2.51,0,0,0-2.49,2.5v3.21A2.51,2.51,0,0,0,59.07,74v4.87a.63.63,0,0,0,1.25,0V74H75.65v4.87a.63.63,0,0,0,1.25,0V74H77a2.5,2.5,0,0,0,2.5-2.5V68.3A2.5,2.5,0,0,0,77,65.8h-.1V60.56A28.17,28.17,0,0,0,48.76,32.42H43.67V32a2.5,2.5,0,0,0-2.5-2.5H38a2.51,2.51,0,0,0-2.5,2.5v.42H30.12a.63.63,0,0,0,0,1.25h5.34V48.09ZM78.25,68.3v3.21A1.25,1.25,0,0,1,77,72.76H59.08a1.25,1.25,0,0,1-1.25-1.25V68.3a1.25,1.25,0,0,1,1.25-1.25H77A1.25,1.25,0,0,1,78.25,68.3ZM48.76,33.67A26.92,26.92,0,0,1,75.65,60.56V65.8H60.32V60.91A12.83,12.83,0,0,0,47.5,48.09H43.67V33.67ZM36.71,32A1.25,1.25,0,0,1,38,30.75h3.21A1.25,1.25,0,0,1,42.42,32V49.92a1.25,1.25,0,0,1-1.25,1.25H38a1.25,1.25,0,0,1-1.25-1.25Z"/></svg>