<svg id="Layer_1" data-name="Layer 1" xmlns="http://www.w3.org/2000/svg" viewBox="0 0 109 109"><defs><style>.cls-1{fill:#415464;}.cls-2{fill:#fff;fill-rule:evenodd;}</style></defs><circle class="cls-1" cx="54.5" cy="54.5" r="54.5"/><path class="cls-2" d="M34.32,62.72a.77.77,0,0,1,0-.15L36.06,55a.19.19,0,0,1,0-.08l1.71-7.57s0-.05,0-.08l.47-2.06a5.72,5.72,0,1,1,7.45-6H73.78a.52.52,0,0,1,.51.44L76,47.27s0,0,0,.08l1.72,7.57a.19.19,0,0,1,0,.08l1.72,7.57a.77.77,0,0,1,0,.15V66.1a.52.52,0,0,1-.52.52H59.9l.63,5.31h2.7a.52.52,0,0,1,.52.51v3h8.79a.52.52,0,0,1,0,1H41.28a.52.52,0,0,1,0-1h8.79v-3a.51.51,0,0,1,.52-.51h2.7l.63-5.31H34.83a.51.51,0,0,1-.51-.51Zm.84-28.55-1.85-1.85a.51.51,0,0,0-.73.72l1.85,1.86A.52.52,0,0,0,35.16,34.17Zm-2.53,5.09H30a.52.52,0,0,0,0,1h2.62A.52.52,0,0,0,32.63,39.26Zm1.8,5.39L32.58,46.5a.52.52,0,0,0,.73.73l1.85-1.85A.52.52,0,0,0,34.43,44.65ZM45.65,34.9l1.85-1.85a.52.52,0,0,0-.73-.73l-1.85,1.85A.52.52,0,0,0,45.65,34.9Zm-5.1-2.54a.52.52,0,0,1-1,0V29.74a.52.52,0,0,1,1,0Zm-2,11.84,1-4.54a.5.5,0,0,1,.5-.4h4.65a4.68,4.68,0,1,0-6.18,4.94Zm.88.76L39,46.91H47l.85-6.62H40.45Zm1.89,34.81a.52.52,0,0,1,0-1H72.54a.52.52,0,0,1,0,1Zm18.21-7.84-.63-5.31H55l-.63,5.31Zm3.22,1H51.1v2.49H62.71Zm-14.66-26h8.34V40.29H48.9Zm9.38,0h8.34l-.85-6.62H57.43Zm9.38,0h8.06l-1.5-6.62H66Zm8.29,1H66.94l.85,6.62H76.6Zm-9.19,0H57.43v6.62h9.33Zm-9.52,0H47.91l-.84,6.62H56.4Zm-9.51,0H38.71l-1.49,6.62H46Zm30,7.65H67.92l.85,6.62h9.57Zm-10,0H57.43v6.62h10.3Zm-10.5,0H46.93l-.85,6.62H56.39Zm-10.49,0H37l-1.5,6.62h9.57Zm22.42,7.65h-33v2.35H78.47V63.24Z"/></svg>