<svg id="Layer_1" data-name="Layer 1" xmlns="http://www.w3.org/2000/svg" viewBox="0 0 109 109"><defs><style>.cls-1{fill:#415464;}.cls-2{fill:#fff;}</style></defs><circle class="cls-1" cx="54.5" cy="54.5" r="54.5"/><path class="cls-2" d="M43.63,53.22a5,5,0,0,1,.22-1.76A4.11,4.11,0,0,1,44.6,50a3.57,3.57,0,0,1,1.27-.95,4.42,4.42,0,0,1,1.76-.33,4.36,4.36,0,0,1,1.45.23,3.87,3.87,0,0,1,1.21.68,3.2,3.2,0,0,1,.82,1.09,3.25,3.25,0,0,1,.31,1.45,3.5,3.5,0,0,1-.16,1.11,3.24,3.24,0,0,1-.42.9,4.28,4.28,0,0,1-.63.72,6.62,6.62,0,0,1-.76.62l-.84.56c-.29.18-.58.37-.86.57s-.54.42-.8.64a4.22,4.22,0,0,0-.69.77h5.23V60H43.37a4.67,4.67,0,0,1,.28-1.67,4.26,4.26,0,0,1,.75-1.27,6.11,6.11,0,0,1,1.11-1c.43-.32.88-.64,1.35-1l.77-.51a3.94,3.94,0,0,0,.75-.58,2.78,2.78,0,0,0,.57-.71,1.68,1.68,0,0,0,.23-.9,1.65,1.65,0,0,0-.46-1.24,1.62,1.62,0,0,0-1.2-.46,1.38,1.38,0,0,0-.83.24,1.84,1.84,0,0,0-.54.6,2.6,2.6,0,0,0-.29.81,4.56,4.56,0,0,0-.09.89Z"/><path class="cls-2" d="M52.76,57.59h2.48V60H52.76Z"/><path class="cls-2" d="M56.54,54.45a9.51,9.51,0,0,1,.32-2.7A4.83,4.83,0,0,1,57.74,50,3,3,0,0,1,59,49a4.27,4.27,0,0,1,1.56-.28,4.35,4.35,0,0,1,1.56.28,3.13,3.13,0,0,1,1.3,1,4.68,4.68,0,0,1,.88,1.76,9.48,9.48,0,0,1,.33,2.7,9.73,9.73,0,0,1-.33,2.76A4.91,4.91,0,0,1,63.44,59a3.15,3.15,0,0,1-1.3,1,4.35,4.35,0,0,1-1.56.28A4.27,4.27,0,0,1,59,60a3,3,0,0,1-1.28-1,5.07,5.07,0,0,1-.88-1.79A9.77,9.77,0,0,1,56.54,54.45Zm2.24,0c0,.32,0,.7,0,1.15a6.09,6.09,0,0,0,.2,1.29A2.81,2.81,0,0,0,59.53,58a1.3,1.3,0,0,0,1,.44A1.32,1.32,0,0,0,61.63,58a2.6,2.6,0,0,0,.55-1.07,6.81,6.81,0,0,0,.2-1.29c0-.45,0-.83,0-1.15s0-.42,0-.68,0-.55-.06-.83a8,8,0,0,0-.16-.85,2.52,2.52,0,0,0-.31-.75,1.65,1.65,0,0,0-.52-.53,1.36,1.36,0,0,0-.77-.21,1.33,1.33,0,0,0-.76.21,1.52,1.52,0,0,0-.51.53,2.52,2.52,0,0,0-.31.75,4.9,4.9,0,0,0-.16.85c0,.28-.05.56-.06.83Z"/><path class="cls-2" d="M54,77.3a22.76,22.76,0,0,1-15.28-5.88l.66-.73A21.82,21.82,0,0,0,72.44,42.82l.83-.53A22.81,22.81,0,0,1,54,77.3Z"/><path class="cls-2" d="M73.06,42.9a7.35,7.35,0,0,0,4.53-1.4,13.45,13.45,0,0,1-6.84-1.74,14.14,14.14,0,0,1-.36,7A7.47,7.47,0,0,0,73.06,42.9Z"/><path class="cls-2" d="M32.34,61.61A22.8,22.8,0,0,1,68.73,37.09l-.63.75A21.82,21.82,0,0,0,33.28,61.31Z"/><path class="cls-2" d="M35.4,66.8a29.77,29.77,0,0,1,.66-9.6l-3.51,3.52-5,.46A29.77,29.77,0,0,1,35.4,66.8Z"/></svg>