<svg id="Layer_1" data-name="Layer 1" xmlns="http://www.w3.org/2000/svg" viewBox="0 0 109 109"><defs><style>.cls-1{fill:#415464;}.cls-2{fill:#fff;fill-rule:evenodd;}</style></defs><circle class="cls-1" cx="54.5" cy="54.5" r="54.5"/><path class="cls-2" d="M44.52,45.88H30.36a.87.87,0,0,0-.86.86V54.5a.86.86,0,0,0,.86.86h3.88v7.76a.86.86,0,0,0,.86.86h4.31a.86.86,0,0,0,.87-.86V55.36h2.88L39.85,78.52a.88.88,0,0,0,.86,1H68.29a.88.88,0,0,0,.86-1L65.84,55.36h2.88v7.76a.86.86,0,0,0,.87.86H73.9a.86.86,0,0,0,.86-.86V55.36h3.88a.86.86,0,0,0,.86-.86V46.74a.87.87,0,0,0-.86-.86H64.48L62.25,30.24a.86.86,0,0,0-.85-.74H47.6a.86.86,0,0,0-.85.74Zm12.34,9.48H64.1l3.2,22.42H41.7l3.2-22.42ZM53.64,72.17v3.45a.86.86,0,0,0,1.72,0V72.17a.86.86,0,0,0-1.72,0Zm0-7.76v3.45a.86.86,0,0,0,1.72,0V64.41a.86.86,0,0,0-1.72,0Zm17.49-9H73v6.9H70.45v-6.9Zm-34.49,0h1.91v6.9H36v-6.9Zm17,1.3V60.1a.86.86,0,1,0,1.72,0V56.66a.86.86,0,1,0-1.72,0ZM77.78,47.6v6H31.22v-6Zm-15-1.72H46.26l2.09-14.66h12.3Zm-9.1-4.74v3.45a.86.86,0,0,0,1.72,0V41.14a.86.86,0,0,0-1.72,0Zm0-7.76v3.45a.86.86,0,0,0,1.72,0V33.38a.86.86,0,1,0-1.72,0Z"/></svg>