<svg id="Layer_1" data-name="Layer 1" xmlns="http://www.w3.org/2000/svg" viewBox="0 0 109 109"><defs><style>.cls-1{fill:#415464;}.cls-2{fill:#fff;}</style></defs><circle class="cls-1" cx="54.5" cy="54.5" r="54.5"/><path class="cls-2" d="M69.87,71.37a.92.92,0,0,1-1.83,0,.92.92,0,1,1,1.83,0Zm-27.45-.91a.94.94,0,1,0,.94.94A1,1,0,0,0,42.42,70.46ZM79.5,59.32V71.37a.9.9,0,0,1-.9.9h-4a5.72,5.72,0,0,1-11.29,0H48.1a5.72,5.72,0,0,1-11.29,0H30.4a.9.9,0,0,1-.9-.9V55.7a.91.91,0,0,1,1.81,0V62H59.62V43.7a.35.35,0,0,0-.35-.34H54.5a.91.91,0,0,1,0-1.81h4.77a2.16,2.16,0,0,1,2.16,2.15v2.67h7.49a3.26,3.26,0,0,1,2.69,1.4l7.73,11h0c0,.06.07.14.11.21s0,0,0,.06a.86.86,0,0,1,0,.24ZM61.43,48.17V58.42H76.86l-6.73-9.61a1.48,1.48,0,0,0-1.21-.64ZM31.31,70.46H36.8l0-.14a1.74,1.74,0,0,1,.05-.22c0-.1,0-.2.08-.31l.06-.21c0-.11.08-.2.11-.3a1.67,1.67,0,0,0,.08-.2c0-.11.1-.2.14-.3l.09-.17c.06-.11.13-.22.2-.33a.83.83,0,0,1,.08-.12,4.13,4.13,0,0,1,.31-.42l0-.06c.1-.12.2-.23.31-.34l.13-.12.25-.22.16-.13.26-.19a1.88,1.88,0,0,1,.18-.12l.27-.17.2-.11.28-.13.2-.09.29-.1.22-.08.32-.08.2,0,.36,0,.18,0a5.25,5.25,0,0,1,.56,0,5,5,0,0,1,.56,0l.19,0,.36,0,.2,0a1.67,1.67,0,0,1,.32.08l.21.08.3.1.2.09.28.13.2.11.26.17.19.12.25.19.17.13.25.22a1.42,1.42,0,0,0,.13.12,3.17,3.17,0,0,1,.3.34.17.17,0,0,1,.06.06,4.56,4.56,0,0,1,.31.42.83.83,0,0,1,.08.12c.06.11.13.22.2.33l.09.17.14.3c0,.06,0,.13.08.2s.07.2.11.3l.06.21c0,.11.06.21.08.31s0,.15,0,.22a.35.35,0,0,0,0,.14H59.62V63.84H31.31Zm15.06.91a3.92,3.92,0,1,0-3.92,3.91A3.93,3.93,0,0,0,46.37,71.37Zm26.5,0A3.92,3.92,0,1,0,69,75.28,3.92,3.92,0,0,0,72.87,71.37Zm4.82-.91V60.22H61.43V70.46h1.88l0-.14a1.74,1.74,0,0,1,0-.22c0-.1,0-.2.07-.31s0-.14.07-.21a2.65,2.65,0,0,1,.11-.3,1.67,1.67,0,0,1,.08-.2,2.75,2.75,0,0,1,.14-.3l.09-.17c.06-.11.13-.22.2-.33a.75.75,0,0,1,.07-.12c.1-.15.21-.28.32-.42s0,0,0-.06.19-.23.3-.34l.13-.12.26-.22.16-.13a2.48,2.48,0,0,1,.26-.19,1.88,1.88,0,0,1,.18-.12l.27-.17.19-.11.28-.13.21-.09.29-.1.21-.08.32-.08.21,0,.36,0,.18,0a5.12,5.12,0,0,1,.56,0,5.25,5.25,0,0,1,.56,0l.18,0,.36,0,.21,0a1.67,1.67,0,0,1,.32.08l.21.08.29.1.21.09.28.13.19.11.27.17a1.88,1.88,0,0,1,.18.12,2.48,2.48,0,0,1,.26.19l.16.13.26.22a1.42,1.42,0,0,0,.13.12l.3.34a.1.1,0,0,1,0,.06,3.32,3.32,0,0,1,.32.42.75.75,0,0,1,.07.12c.07.11.14.22.2.33l.09.17.15.3a1.18,1.18,0,0,1,.07.2c0,.1.08.2.11.3a1.72,1.72,0,0,0,.07.21c0,.11.05.21.07.31a1.74,1.74,0,0,1,0,.22l0,.14ZM29.5,49.63V34.07a2.16,2.16,0,0,1,2.16-2.16H48.43a2.15,2.15,0,0,1,2.15,2.16V49.64a2.15,2.15,0,0,1-2.15,2.15H31.66a2.17,2.17,0,0,1-2.16-2.17Zm9-15.91v3.65l1.1-.55a.79.79,0,0,1,.4-.1.86.86,0,0,1,.41.1l1.1.55V33.72ZM31.31,49.63a.35.35,0,0,0,.35.35H48.43a.35.35,0,0,0,.35-.35V34.07a.34.34,0,0,0-.34-.35H43.36v5.12a.93.93,0,0,1-.43.77.91.91,0,0,1-.48.13.79.79,0,0,1-.4-.1l-2-1-2,1a.89.89,0,0,1-.88,0,.91.91,0,0,1-.43-.77V33.72H31.66a.34.34,0,0,0-.35.35Z"/></svg>