<svg id="Layer_1" data-name="Layer 1" xmlns="http://www.w3.org/2000/svg" viewBox="0 0 109 109"><defs><style>.cls-1{fill:#415464;}.cls-2{fill:#fff;}</style></defs><circle class="cls-1" cx="54.5" cy="54.5" r="54.5"/><path class="cls-2" d="M45,71.07H30.16a.66.66,0,0,1-.46-.19.65.65,0,0,1-.2-.47V42.19a.68.68,0,0,1,.38-.61L49.61,30.43a.65.65,0,0,1,.66,0L70,41.61a.67.67,0,0,1,.34.58V60.11h1.83c1.64,0,2.39,1.49,3.33,2.57l2.56,3.2h0a2.31,2.31,0,0,1,.45,1.54v1.7a1.6,1.6,0,0,1,1,1.47v4.59a.67.67,0,0,1-.67.67H75.49a3.47,3.47,0,0,1-6.82,0h-13a3.47,3.47,0,0,1-6.82,0H47.19a.67.67,0,0,1-.43-.16l-1.48-1h0a.68.68,0,0,1-.29-.55ZM35.74,56.48V53.37H34.57v7.35h7.35V53.37H40.76v3.11a.65.65,0,0,1-.28.54.67.67,0,0,1-.6.09l-1.63-.5-1.66.5A.64.64,0,0,1,36,57a.65.65,0,0,1-.27-.53ZM36.4,52h6.19a.65.65,0,0,1,.66.67v17H45v-13a.67.67,0,0,1,.19-.47.71.71,0,0,1,.47-.2H65.31V49.61H34.57V52Zm.67,1.33v2.2l1-.29h0a.68.68,0,0,1,.4,0l1,.3V53.37ZM35.74,65.15v-3.1H34.57V69.4h7.35V62.05H40.76v3.11a.66.66,0,0,1-.28.54.64.64,0,0,1-.6.09l-1.63-.49-1.66.5a.64.64,0,0,1-.58-.11.65.65,0,0,1-.27-.53Zm1.33-3.1v2.21l1-.3h0a.68.68,0,0,1,.4,0l1,.3V62.05ZM49.94,36.49a3.35,3.35,0,1,1-2.38,1A3.36,3.36,0,0,1,49.94,36.49Zm1.44,1.92a2,2,0,1,0,0,2.88,2.05,2.05,0,0,0,0-2.88ZM33.91,45H66a.67.67,0,0,1,.67.67V56.08h.57a.68.68,0,0,1,.67.67v3.36h1.17V42.57L49.94,31.77,30.83,42.57V69.74h2.41v-24a.67.67,0,0,1,.67-.66Zm31.4,1.34H34.57v1.92H65.31ZM75.49,74.52h2.68V73H76.48a.67.67,0,0,1-.47-.2.63.63,0,0,1-.2-.47V69.64a.68.68,0,0,1,.67-.67h.74V67.9H70.69a.66.66,0,0,1-.47-.19.68.68,0,0,1-.19-.47v-4.1a.66.66,0,0,1,.66-.67h3c-.4-.49-.8-1-1.46-1H67.88V72.28a.63.63,0,0,1-.2.47.65.65,0,0,1-.53.19H56.78a.64.64,0,0,1-.48-.18.68.68,0,0,1-.21-.48.64.64,0,0,1,.21-.47.61.61,0,0,1,.48-.19h9.77V57.42H46.32V71.61h1.46a.69.69,0,0,1,.48.19.68.68,0,0,1,0,1,.69.69,0,0,1-.48.19H46.32v.83l1.08.74h1.42a3.47,3.47,0,0,1,6.82,0h13a3.47,3.47,0,0,1,6.82,0Zm-1.9-.85h0a2.14,2.14,0,1,0,0,3,2.13,2.13,0,0,0,0-3Zm-19.85,0h0a2.14,2.14,0,1,0,0,3,2.15,2.15,0,0,0,0-3Zm24-3.36h-.57v1.31h1v-1c0-.29-.26-.26-.45-.29ZM70.43,70a.63.63,0,0,1-.48-.19.66.66,0,0,1,0-1,.66.66,0,0,1,.48-.19h.89a.66.66,0,0,1,.48,1.14.63.63,0,0,1-.48.19ZM77,66.57,74.73,63.8H71.36v2.77Z"/></svg>