<svg id="Layer_1" data-name="Layer 1" xmlns="http://www.w3.org/2000/svg" viewBox="0 0 96 96"><defs><style>.cls-1,.cls-2{fill:none;stroke:#000;stroke-linecap:round;stroke-linejoin:round;}.cls-1{stroke-width:1.62px;}.cls-2{stroke-width:1.54px;fill-rule:evenodd;}</style></defs><path class="cls-1" d="M94.17,31.25l0,2.53c-.05,1.72-1.27,42.06-30.34,50.28l-.78.22-.78-.22C33.15,75.84,31.92,35.5,31.88,33.78l-.06-2.53,2.51-.37c13.22-1.95,26.76-12.4,26.9-12.51L63,17l1.77,1.37c.13.11,13.72,10.56,26.91,12.51Z"/><path class="cls-2" d="M45.57,23.84V18.31a5.37,5.37,0,1,0-4,0v7.15A25.4,25.4,0,0,0,26.9,31.51l-5.06-5.06a5.34,5.34,0,1,0-4.93,3.31A5.43,5.43,0,0,0,19,29.35l5,5A25.54,25.54,0,0,0,18,49.05H10.82a5.35,5.35,0,1,0,0,4H18A25.51,25.51,0,0,0,24,67.74L19,72.82A5.35,5.35,0,0,0,13.13,74a5.34,5.34,0,0,0,3.78,9.12,5.31,5.31,0,0,0,5.34-5.34,5.58,5.58,0,0,0-.42-2.1l5.07-5A25.49,25.49,0,0,0,41.54,76.7v7.14a5.35,5.35,0,0,0,2,10.31,5.35,5.35,0,0,0,2-10.31V76.7h.1"/><polyline class="cls-2" points="58 52 62.5 56.5 73 46"/></svg>