<svg id="Layer_1" data-name="Layer 1" xmlns="http://www.w3.org/2000/svg" viewBox="0 0 96 96"><defs><style>.cls-1{fill:none;stroke:#000;stroke-linecap:round;stroke-linejoin:round;stroke-width:1.62px;}</style></defs><path class="cls-1" d="M79.17,46.45a1,1,0,0,1-.53.58l-3.37,1.18A22.26,22.26,0,0,1,77.92,48,1.09,1.09,0,0,1,78,49.16a46.28,46.28,0,0,1-7.51,10.72,77.67,77.67,0,0,1-7.59,7.29,1.13,1.13,0,0,1-.49.24l-3.29.64A1.09,1.09,0,0,1,59.5,70l-.32.26-.48.37A87.75,87.75,0,0,1,42,80.64l-1.08.5c-3.73,1.73-16.79,3.31-17.27,2.44.68-1.72,3.05-5,9.21-12.62.73-.9,1.27-1.56,1.48-1.83C35.91,67,37.48,64.74,39,62.58a1.08,1.08,0,0,1,1.12-.46,18.15,18.15,0,0,1,1.62,2.33l-.57-5a1,1,0,0,1,.16-.43A128.25,128.25,0,0,0,49.83,43.9C50.72,42,51.6,40,52.59,37.51a1.12,1.12,0,0,1,1.12-.68,1.08,1.08,0,0,1,1,.88l.11.55.43-7.42a1,1,0,0,1,.07-.32l.33-.91C58.74,21.31,62,12.72,67.06,5.25,69,2.46,71,1.22,73,1.61c4.42.86,6.51,9.25,6.89,10.92C82.92,26.08,82.69,37.18,79.17,46.45Z"/><path d="M23,48.86h0a.54.54,0,0,1-.54-.44c-1.3-6.64-2.22-7.66-8.19-9.09a.55.55,0,0,1,0-1.07c6-1.44,6.88-2.46,8.19-9.09a.55.55,0,0,1,.54-.45.56.56,0,0,1,.54.45c1.3,6.63,2.22,7.65,8.19,9.09a.55.55,0,0,1,0,1.07c-6,1.43-6.89,2.45-8.19,9.09A.55.55,0,0,1,23,48.86ZM16.57,38.79c4,1.19,5.37,2.69,6.46,7,1.08-4.27,2.48-5.77,6.45-7-4-1.19-5.37-2.68-6.45-6.95C21.94,36.11,20.54,37.6,16.57,38.79Z"/><path d="M77,75.93h0a.38.38,0,0,1-.37-.3c-.88-4.5-1.5-5.19-5.55-6.16a.37.37,0,0,1,0-.72c4-1,4.67-1.67,5.55-6.16a.37.37,0,0,1,.73,0c.88,4.49,1.51,5.18,5.55,6.16a.37.37,0,0,1,0,.72c-4,1-4.67,1.66-5.55,6.16A.37.37,0,0,1,77,75.93Zm-4.37-6.82c2.68.8,3.63,1.82,4.37,4.71.73-2.89,1.68-3.91,4.37-4.71-2.69-.81-3.64-1.82-4.37-4.71C76.26,67.29,75.31,68.3,72.63,69.11Z"/><path class="cls-1" d="M9.22,89.35,23,84.45a30.78,30.78,0,0,0,3.59-1.54C34.83,78.67,64.58,60.78,72,19"/></svg>