<svg id="Layer_1" data-name="Layer 1" xmlns="http://www.w3.org/2000/svg" viewBox="0 0 96 96"><defs><style>.cls-1{fill:none;stroke:#000;stroke-linecap:round;stroke-linejoin:round;stroke-width:1.62px;}</style></defs><path class="cls-1" d="M90.3,21.7l-.08,3.43c-.06,2.33-1.72,57.07-41.16,68.21l-1.06.3-1.06-.3C7.51,82.2,5.84,27.46,5.78,25.13L5.7,21.7l3.4-.51C27,18.55,45.42,4.37,45.61,4.22L48,2.36l2.39,1.86c.18.15,18.62,14.33,36.51,17Z"/><path class="cls-1" d="M48,11.83l1.9,1.46c.14.12,14.75,11.36,28.94,13.46l2.69.4-.06,2.72c0,1.85-1.36,45.24-32.63,54.07l-.84.24"/><path d="M41.59,68.46h0a.73.73,0,0,1-.72-.59C39.13,59,37.91,57.67,30,55.76a.74.74,0,0,1-.56-.72.72.72,0,0,1,.56-.71c8-1.91,9.18-3.27,10.92-12.12a.73.73,0,0,1,.72-.59.74.74,0,0,1,.72.59c1.73,8.85,3,10.21,10.91,12.12a.72.72,0,0,1,.56.71.74.74,0,0,1-.56.72C45.27,57.67,44,59,42.31,67.87A.74.74,0,0,1,41.59,68.46ZM33,55c5.28,1.59,7.15,3.57,8.6,9.27,1.44-5.7,3.31-7.68,8.6-9.27-5.29-1.58-7.16-3.57-8.6-9.27C40.14,51.47,38.27,53.46,33,55Z"/><path d="M34.89,81a.74.74,0,0,1-.73-.59c-.42-2.17-.61-2.38-2.53-2.84a.74.74,0,0,1-.56-.72.73.73,0,0,1,.56-.71c1.92-.46,2.11-.68,2.53-2.84a.74.74,0,0,1,.73-.6h0a.74.74,0,0,1,.72.6c.42,2.16.61,2.38,2.53,2.84a.73.73,0,0,1,.56.71.74.74,0,0,1-.56.72c-1.92.46-2.11.67-2.53,2.84A.74.74,0,0,1,34.89,81Zm-1-4.15a2.76,2.76,0,0,1,1,1,2.66,2.66,0,0,1,1-1,2.63,2.63,0,0,1-1-1A2.73,2.73,0,0,1,33.93,76.82Z"/></svg>