<svg id="Layer_1" data-name="Layer 1" xmlns="http://www.w3.org/2000/svg" viewBox="0 0 96 96"><defs><style>.cls-1,.cls-2{fill:none;stroke:#000;stroke-linecap:round;stroke-linejoin:round;}.cls-1{stroke-width:1.62px;}.cls-2{stroke-width:1.64px;}</style></defs><path class="cls-1" d="M57.5,2c-1,8-4,28.17-8.43,37.56C43.44,51.41,33.65,58.24,29.45,67.39S18.87,79.81,8.83,80.14a2.16,2.16,0,0,0-2.08,2.09c-.1,2.75.52,7.29,5.65,7.29,5.73,0,6.54-2.79,11.22-.6,3.81,1.78,12.76,2,17.51-5.41,6.43-10,10.31-11.79,18.66-12.58,5.89-.56,12.45-3.16,12.45-11s-5.48-10.63-5-15.66c.69-7.43,18.13-22.21,24.86-42.21"/><path class="cls-2" d="M60.08,55.07s0,4-2,5"/><line class="cls-1" x1="41.94" y1="87.31" x2="92.32" y2="87.31"/><path d="M17.88,69h0a.66.66,0,0,1-.65-.53c-1.56-7.95-2.66-9.17-9.81-10.89a.66.66,0,0,1,0-1.29c7.15-1.72,8.25-2.94,9.81-10.89a.66.66,0,0,1,.65-.54.67.67,0,0,1,.65.54c1.56,7.95,2.66,9.17,9.81,10.89a.66.66,0,0,1,0,1.29c-7.15,1.72-8.25,2.94-9.81,10.89A.66.66,0,0,1,17.88,69ZM10.15,57c4.75,1.43,6.43,3.22,7.73,8.34,1.3-5.12,3-6.91,7.73-8.34-4.75-1.42-6.43-3.21-7.73-8.33C16.58,53.74,14.9,55.53,10.15,57Z"/><path d="M50.12,83h0a.16.16,0,0,1-.16-.13c-.37-1.9-.63-2.2-2.35-2.61a.16.16,0,0,1-.12-.15.16.16,0,0,1,.12-.16c1.72-.41,2-.7,2.35-2.61a.17.17,0,0,1,.16-.13.16.16,0,0,1,.15.13c.38,1.91.64,2.2,2.36,2.61a.16.16,0,0,1,.12.16.16.16,0,0,1-.12.15c-1.72.41-2,.71-2.36,2.61A.15.15,0,0,1,50.12,83Zm-1.86-2.89a2.27,2.27,0,0,1,1.86,2,2.26,2.26,0,0,1,1.85-2,2.27,2.27,0,0,1-1.85-2A2.28,2.28,0,0,1,48.26,80.13Z"/></svg>