<svg id="Layer_1" data-name="Layer 1" xmlns="http://www.w3.org/2000/svg" viewBox="0 0 96 96"><defs><style>.cls-1,.cls-2,.cls-3{fill:none;stroke:#000;stroke-linecap:round;stroke-linejoin:round;}.cls-1{stroke-width:1.62px;}.cls-2{stroke-width:0.41px;}.cls-3{stroke-width:0.33px;}</style></defs><path class="cls-1" d="M90.3,21.69l-.07,3.44c-.06,2.33-1.73,57.07-41.17,68.22L48,93.64l-1.06-.29C7.51,82.2,5.83,27.46,5.77,25.13L5.7,21.69l3.4-.5C27,18.54,45.42,4.36,45.61,4.21L48,2.36l2.39,1.85c.18.15,18.62,14.34,36.51,17Z"/><path class="cls-2" d="M41.68,32.43a21.54,21.54,0,0,0,1.47,1.84,1.49,1.49,0,0,0,2.05.23,9.23,9.23,0,0,1,2.57-.64c0,.11.06.22.08.33l-2.74.69v.38l2.8.8c.23.07.46.13.69.21,1.85.61,1.85.61,3-.77-.25.58-.49,1.16-.78,1.86l.84,1.32,2-1.23.21.24a11.31,11.31,0,0,0-1.46,1.09A3.89,3.89,0,0,0,51.79,40c-.08.21,0,.48,0,.72-.14,1.35-.28,2.7-.44,4.14-.1-.37-.19-.69-.26-.93a17.41,17.41,0,0,1-2.93,1.58,17.94,17.94,0,0,1-3.35.43l1.14,2.13c-2-2.49-2-2.49-4.9-2.94.06.53.12,1,.18,1.5l-.25.07c-.16-.59-.33-1.18-.52-1.84l-2.06-1.1-1.67,1.4-.18-.22L38,43.31a7.79,7.79,0,0,1-1.2-1,1.05,1.05,0,0,0-1.45-.38,1.47,1.47,0,0,1-2-.57h2.33l-2.55-4.79L31,37.64l-.15-.24a11.6,11.6,0,0,0,1.62-1A2.21,2.21,0,0,0,33,35.32c.07-.25-.14-.55-.14-.83,0-1.35-.09-2.55-1.94-2.41h1.68c.55-1.32,1.11-2.64,1.69-4-.58-1.23-1.2-2.57-1.82-3.91l.32-.17,2,4c.74-1.45,3-1.36,2.49-3.37a19.79,19.79,0,0,1,2.67,3,27.37,27.37,0,0,1,1.65,4.21l2.72-1.94.2.21-2.89,2.35m6.25,8.36a2.34,2.34,0,1,0-4.67.09,2.34,2.34,0,0,0,4.67-.09m-7.83-3.1c-.54-.42-.89-.89-1.14-.85s-.66.53-1,.82c.32.29.6.73,1,.81s.62-.39,1.16-.78m-2-7.13c-.42.54-.89.9-.84,1.15s.53.64.83.95c.28-.29.76-.55.8-.88s-.39-.64-.79-1.22"/><path class="cls-2" d="M73.2,48c0,2.51-1.5,4.58-3.51,4.92a4.75,4.75,0,0,1-2.32-.29c-.93-.34-1.05-1.16-.43-1.93.19-.24.46-.41.63-.65.51-.71,1-1.42,1.48-2.16.25-.39.39-.85.63-1.24a1.82,1.82,0,0,1,1.92-1,2,2,0,0,1,1.5,1.59,3.61,3.61,0,0,1,.1.78"/><path class="cls-3" d="M72,47.66c-.3-.23-.49-.49-.63-.46s-.35.29-.53.44c.17.16.33.4.53.45s.33-.22.63-.43"/><path class="cls-2" d="M64.61,54.92c2.16,1.29,3.23,3.58,2.53,5.5a4.75,4.75,0,0,1-1.41,1.86c-.76.64-1.53.34-1.89-.58-.11-.28-.12-.6-.25-.87-.36-.8-.73-1.59-1.14-2.36-.21-.41-.54-.76-.76-1.17a1.8,1.8,0,0,1,.07-2.16,2,2,0,0,1,2.13-.52,4,4,0,0,1,.72.3"/><path class="cls-3" d="M63.7,55.75c-.34.15-.66.19-.71.32s.07.45.12.68c.22-.07.51-.09.64-.24s0-.39,0-.76"/><line class="cls-1" x1="72.89" y1="77.05" x2="6.55" y2="22.32"/><path class="cls-2" d="M57.87,68.5c1,1.31,2,2.52,1.44,4.37a6.69,6.69,0,0,0,0,1.95,3.23,3.23,0,0,1-2-3.56c.2-.87.37-1.75.58-2.76m1.38,3.38c-.45-.27-.7-.52-1-.54s-.36.32-.54.49c.21.21.39.54.64.59s.44-.26.87-.54"/><path class="cls-2" d="M70.31,56.89c1,1.32,2,2.52,1.43,4.37a7.07,7.07,0,0,0,0,2,3.25,3.25,0,0,1-2-3.56c.21-.87.38-1.75.59-2.76m1.38,3.38c-.46-.27-.7-.52-1-.54s-.36.32-.54.49c.21.21.39.54.64.6s.44-.27.87-.55"/><path class="cls-2" d="M35.52,66.18c.42,2.53-1.1,5.31-4.12,3.69-3.17.53-6-.44-5-3.23-.09-4.38,2.38-6.39,5-6.55C34.38,60.8,35.11,63.05,35.52,66.18Z"/><path d="M83.61,18h0a.3.3,0,0,1-.3-.25c-.72-3.67-1.23-4.23-4.53-5a.31.31,0,0,1,0-.6c3.3-.79,3.81-1.35,4.53-5a.3.3,0,0,1,.6,0c.72,3.67,1.23,4.23,4.53,5a.31.31,0,0,1,0,.6c-3.3.79-3.81,1.35-4.53,5A.3.3,0,0,1,83.61,18ZM80,12.43c2.2.66,3,1.48,3.57,3.85.6-2.37,1.37-3.19,3.57-3.85-2.2-.66-3-1.48-3.57-3.85C83,11,82.24,11.77,80,12.43Z"/><path d="M71.61,10.86h0a.14.14,0,0,1-.13-.11c-.31-1.6-.54-1.84-2-2.19a.13.13,0,0,1,0-.26c1.44-.35,1.67-.59,2-2.19a.13.13,0,0,1,.26,0c.31,1.6.54,1.84,2,2.19a.13.13,0,0,1,0,.26c-1.44.35-1.67.59-2,2.19A.14.14,0,0,1,71.61,10.86ZM70.05,8.43a1.91,1.91,0,0,1,1.56,1.68,1.91,1.91,0,0,1,1.56-1.68,1.91,1.91,0,0,1-1.56-1.68A1.91,1.91,0,0,1,70.05,8.43Z"/></svg>