<svg id="Layer_1" data-name="Layer 1" xmlns="http://www.w3.org/2000/svg" viewBox="0 0 96 96"><defs><style>.cls-1,.cls-2{fill:none;stroke:#000;stroke-linecap:round;stroke-linejoin:round;}.cls-1{stroke-width:1.5px;}.cls-2{stroke-dasharray:3 3;}</style></defs><path class="cls-1" d="M42,72.43H1V27.57H42"/><path class="cls-1" d="M53,27.57H95V72.43H53"/><line class="cls-2" x1="48" y1="9" x2="48" y2="91"/><path d="M58.74,16.32h0a.37.37,0,0,1-.37-.3c-.89-4.54-1.52-5.24-5.6-6.22a.37.37,0,0,1,0-.73c4.08-1,4.71-1.68,5.6-6.22a.38.38,0,0,1,.74,0c.89,4.54,1.52,5.24,5.6,6.22a.37.37,0,0,1,0,.73c-4.08,1-4.71,1.68-5.6,6.22A.37.37,0,0,1,58.74,16.32ZM54.33,9.43c2.71.82,3.67,1.84,4.41,4.76.74-2.92,1.7-3.94,4.41-4.76-2.71-.81-3.67-1.83-4.41-4.75C58,7.6,57,8.62,54.33,9.43Z"/><path d="M55.3,22.74a.37.37,0,0,1-.37-.3c-.22-1.11-.32-1.22-1.3-1.46a.37.37,0,0,1,0-.73c1-.24,1.08-.35,1.3-1.46a.37.37,0,0,1,.37-.3h0a.37.37,0,0,1,.37.3C55.89,19.9,56,20,57,20.25A.37.37,0,0,1,57,21c-1,.24-1.08.35-1.3,1.46A.37.37,0,0,1,55.3,22.74Zm-.49-2.12a1.31,1.31,0,0,1,.49.5,1.31,1.31,0,0,1,.49-.5,1.33,1.33,0,0,1-.49-.51A1.33,1.33,0,0,1,54.81,20.62Z"/></svg>