<svg id="Layer_1" data-name="Layer 1" xmlns="http://www.w3.org/2000/svg" viewBox="0 0 96 96"><defs><style>.cls-1{fill:none;stroke:#000;stroke-linecap:round;stroke-linejoin:round;stroke-width:1.5px;}</style></defs><path class="cls-1" d="M62.9,84.18V47.44A3.5,3.5,0,0,0,61,44.33a20.43,20.43,0,0,1-3.88-2.64,22.08,22.08,0,0,1-2.72-31,1.63,1.63,0,0,1,2.86,1v10.3a3.81,3.81,0,0,0,1.52,3.06L69.05,33h0a3.86,3.86,0,0,0,4.65,0l10.35-7.86a3.86,3.86,0,0,0,1.51-3.06V11.77a1.62,1.62,0,0,1,2.86-1,22.09,22.09,0,0,1-2.73,31,20.91,20.91,0,0,1-3.88,2.64,3.47,3.47,0,0,0-1.88,3.11V84.18a8.51,8.51,0,1,1-17,0Z"/><path class="cls-1" d="M67.07,81.72a4.33,4.33,0,1,0,4.33-4.33,4.34,4.34,0,0,0-4.33,4.33Z"/><path class="cls-1" d="M50.07,6.12H39.51a4.19,4.19,0,0,0-4.19,4.18v8.64a2.43,2.43,0,0,1-1.5,2.25l-.32.13a2.4,2.4,0,0,1-2.65-.52l-6.13-6.11a4.16,4.16,0,0,0-5.91,0L11,22.45a4.19,4.19,0,0,0,0,5.92l6.11,6.11a2.41,2.41,0,0,1,.59,2.65l-.13.32a2.41,2.41,0,0,1-2.3,1.48H6.67A4.17,4.17,0,0,0,2.5,43.11v11a4.17,4.17,0,0,0,4.17,4.2l0,0h8.65a2.39,2.39,0,0,1,2.24,1.5l.14.32a2.44,2.44,0,0,1-.53,2.66l-6.11,6.1a4.19,4.19,0,0,0,0,5.92l7.77,7.76a4.16,4.16,0,0,0,5.91,0S31,76.34,31,76.34a2.46,2.46,0,0,1,2.46-.6h.16a2.42,2.42,0,0,1,1.71,2.33v8.87a4.2,4.2,0,0,0,4.19,4.18h11a4.2,4.2,0,0,0,4.19-4.18V77.86a2.43,2.43,0,0,1,3.64-2.07"/><path class="cls-1" d="M58.56,68.15A22.57,22.57,0,1,1,45.71,26.68"/><path d="M69.47,17.13h0a.38.38,0,0,1-.38-.31c-.91-4.66-1.56-5.37-5.75-6.38a.39.39,0,0,1,0-.75c4.19-1,4.84-1.72,5.75-6.38A.38.38,0,0,1,69.47,3a.39.39,0,0,1,.38.31C70.76,8,71.4,8.68,75.59,9.69a.38.38,0,0,1,0,.75c-4.19,1-4.83,1.72-5.74,6.38A.39.39,0,0,1,69.47,17.13Zm-4.53-7.07c2.78.84,3.77,1.89,4.53,4.88.76-3,1.74-4,4.52-4.88-2.78-.83-3.76-1.88-4.52-4.87C68.71,8.18,67.72,9.23,64.94,10.06Z"/><path d="M65.94,23.71a.39.39,0,0,1-.38-.31c-.22-1.14-.32-1.25-1.33-1.49a.39.39,0,0,1-.3-.38.39.39,0,0,1,.3-.38c1-.24,1.11-.35,1.33-1.49a.39.39,0,0,1,.38-.31h0a.39.39,0,0,1,.38.31c.22,1.14.32,1.25,1.33,1.49a.39.39,0,0,1,.3.38.39.39,0,0,1-.3.38c-1,.24-1.11.35-1.33,1.49A.39.39,0,0,1,65.94,23.71Zm-.5-2.18a1.47,1.47,0,0,1,.5.52,1.47,1.47,0,0,1,.5-.52,1.47,1.47,0,0,1-.5-.52A1.47,1.47,0,0,1,65.44,21.53Z"/></svg>