<svg id="Layer_1" data-name="Layer 1" xmlns="http://www.w3.org/2000/svg" viewBox="0 0 96 96"><defs><style>.cls-1,.cls-2{fill:none;stroke:#000;stroke-linecap:round;stroke-linejoin:round;}.cls-1{stroke-width:1.5px;}</style></defs><rect class="cls-1" x="2" y="2" width="92" height="92"/><path class="cls-2" d="M48,2V39.35"/><path class="cls-2" d="M48,55V92.5"/><path class="cls-2" d="M2.75,47.25H41.38"/><path class="cls-2" d="M55.86,47.25H93.25"/><path d="M25.28,32.86A2.29,2.29,0,0,1,23,31a2.25,2.25,0,0,1-1.33.43,2.3,2.3,0,0,1-1.62-.67,2.27,2.27,0,0,1-.67-1.62,2.34,2.34,0,0,1,.43-1.33,2.29,2.29,0,0,1,0-4.51,2.32,2.32,0,0,1-.43-1.33,2.35,2.35,0,0,1,.67-1.62A2.29,2.29,0,0,1,23,20.06a2.29,2.29,0,0,1,4.51,0,2.29,2.29,0,0,1,3.62,1.86,2.25,2.25,0,0,1-.43,1.33,2.29,2.29,0,0,1,0,4.51A2.29,2.29,0,0,1,27.53,31,2.29,2.29,0,0,1,25.28,32.86Zm-1.63-4.1a.8.8,0,0,1,.26,0,.68.68,0,0,1,.41.61v1.16a1,1,0,1,0,1.92,0V29.42a.65.65,0,0,1,.41-.61.68.68,0,0,1,.72.14l.81.82a1,1,0,0,0,.68.28,1,1,0,0,0,.68-1.64l-.82-.82a.66.66,0,0,1,.47-1.13h1.16a1,1,0,1,0,0-1.92H29.19a.65.65,0,0,1-.61-.41.68.68,0,0,1,.14-.72l.82-.82a1,1,0,0,0,.28-.68,1,1,0,0,0-.28-.68,1,1,0,0,0-1.36,0l-.82.82a.64.64,0,0,1-.72.14.68.68,0,0,1-.41-.61V20.43a1,1,0,0,0-1.92,0v1.15a.65.65,0,0,1-.41.61.66.66,0,0,1-.72-.14l-.82-.82a1,1,0,0,0-1.36,0,1,1,0,0,0-.28.68,1,1,0,0,0,.28.68l.82.82a.64.64,0,0,1,.14.72.66.66,0,0,1-.61.41H20.2a1,1,0,1,0,0,1.92h1.15a.67.67,0,0,1,.61.41.66.66,0,0,1-.14.72l-.82.82a1,1,0,0,0,0,1.36,1,1,0,0,0,.68.28,1,1,0,0,0,.68-.28l.82-.82A.7.7,0,0,1,23.65,28.76Z"/><path d="M25.28,28.1a2.6,2.6,0,1,1,2.59-2.59A2.6,2.6,0,0,1,25.28,28.1Zm0-3.86a1.27,1.27,0,1,0,1.27,1.27A1.26,1.26,0,0,0,25.28,24.24Z"/><path d="M70.28,80.86A2.29,2.29,0,0,1,68,79a2.25,2.25,0,0,1-1.33.43,2.3,2.3,0,0,1-1.62-.67,2.27,2.27,0,0,1-.67-1.62,2.34,2.34,0,0,1,.43-1.33,2.29,2.29,0,0,1,0-4.51,2.32,2.32,0,0,1-.43-1.33,2.35,2.35,0,0,1,.67-1.62,2.29,2.29,0,0,1,3-.24,2.29,2.29,0,0,1,4.51,0,2.29,2.29,0,0,1,3.62,1.86,2.25,2.25,0,0,1-.43,1.33,2.29,2.29,0,0,1,0,4.51A2.29,2.29,0,0,1,72.53,79,2.29,2.29,0,0,1,70.28,80.86Zm-1.63-4.1a.8.8,0,0,1,.26,0,.68.68,0,0,1,.41.61v1.16a1,1,0,1,0,1.92,0V77.42a.65.65,0,0,1,.41-.61.68.68,0,0,1,.72.14l.81.82a1,1,0,0,0,.68.28,1,1,0,0,0,.68-1.64l-.82-.82a.66.66,0,0,1,.47-1.13h1.16a1,1,0,0,0,0-1.92H74.19a.65.65,0,0,1-.61-.41.68.68,0,0,1,.14-.72l.82-.82a1,1,0,0,0,.28-.68,1,1,0,0,0-.28-.68,1,1,0,0,0-1.36,0l-.82.82a.64.64,0,0,1-.72.14.68.68,0,0,1-.41-.61V68.43a1,1,0,1,0-1.92,0v1.15a.65.65,0,0,1-.41.61.66.66,0,0,1-.72-.14l-.82-.82a1,1,0,0,0-1.36,0,1,1,0,0,0-.28.68,1,1,0,0,0,.28.68l.82.82a.64.64,0,0,1,.14.72.66.66,0,0,1-.61.41H65.2a1,1,0,1,0,0,1.92h1.15a.67.67,0,0,1,.61.41.66.66,0,0,1-.14.72l-.82.82a1,1,0,0,0,0,1.36,1,1,0,0,0,.68.28,1,1,0,0,0,.68-.28l.82-.82A.7.7,0,0,1,68.65,76.76Z"/><path d="M70.28,76.1a2.6,2.6,0,1,1,2.59-2.59A2.6,2.6,0,0,1,70.28,76.1Zm0-3.86a1.27,1.27,0,1,0,1.27,1.27A1.26,1.26,0,0,0,70.28,72.24Z"/><path d="M66.18,26.6a3.48,3.48,0,0,1-.45-1,6.52,6.52,0,0,1-.2-2h0A6.47,6.47,0,0,1,69.35,18a.51.51,0,0,1,.48,0A6.49,6.49,0,0,1,73,24a6.74,6.74,0,0,1-.43,2,3.62,3.62,0,0,1-6.35.61Zm.38-3a5.1,5.1,0,0,0,.17,1.7,2.56,2.56,0,0,0,4.83.29,5.26,5.26,0,0,0,.37-1.67,5.47,5.47,0,0,0-2.41-4.85,5.46,5.46,0,0,0-3,4.53Z"/><path d="M63.29,31.41a.51.51,0,0,1,.15-.71l2.32-1.49a8.08,8.08,0,0,0,2.93-10.3.52.52,0,0,1,.25-.69.51.51,0,0,1,.68.24,9.13,9.13,0,0,1-3.3,11.62L64,31.57A.51.51,0,0,1,63.29,31.41Z"/><path d="M28,68.17a3.26,3.26,0,0,1,.4,1,6.56,6.56,0,0,1,.11,2h0a6.47,6.47,0,0,1-4.06,5.34.49.49,0,0,1-.48,0,6.45,6.45,0,0,1-2.86-6.07,6.61,6.61,0,0,1,.52-2A3.62,3.62,0,0,1,28,68.17Zm-.51,3a5.77,5.77,0,0,0-.09-1.71,2.57,2.57,0,0,0-4.82-.5,5.17,5.17,0,0,0-.44,1.65,5.43,5.43,0,0,0,2.18,5,5.45,5.45,0,0,0,3.17-4.39Z"/><path d="M31.09,63.5a.52.52,0,0,1-.19.7l-2.39,1.39a8.08,8.08,0,0,0-3.39,10.15.52.52,0,0,1-.95.41A9.14,9.14,0,0,1,28,64.69l2.39-1.38A.51.51,0,0,1,31.09,63.5Z"/><path d="M48.12,55.84h0a.48.48,0,0,1-.47-.38c-1.13-5.77-1.93-6.66-7.11-7.9a.48.48,0,0,1,0-.94c5.18-1.24,6-2.13,7.11-7.9a.48.48,0,0,1,.47-.38.47.47,0,0,1,.47.38c1.13,5.77,1.93,6.66,7.12,7.9a.48.48,0,0,1,0,.94c-5.19,1.24-6,2.13-7.12,7.9A.47.47,0,0,1,48.12,55.84Zm-5.61-8.75c3.45,1,4.67,2.33,5.61,6,.94-3.71,2.16-5,5.61-6-3.45-1-4.67-2.33-5.61-6C47.18,44.76,46,46.06,42.51,47.09Z"/></svg>