<svg id="Layer_1" data-name="Layer 1" xmlns="http://www.w3.org/2000/svg" viewBox="0 0 96 96"><defs><style>.cls-1,.cls-2{fill:none;stroke:#000;stroke-linecap:round;stroke-linejoin:round;}.cls-1{stroke-width:1.5px;}.cls-2{stroke-dasharray:3 3;}</style></defs><line class="cls-1" x1="1.5" y1="84" x2="94.5" y2="84"/><line class="cls-2" x1="15.12" y1="87.66" x2="71.88" y2="87.66"/><line class="cls-2" x1="15.12" y1="79.66" x2="71.88" y2="79.66"/><path d="M80.43,66.4h0A.47.47,0,0,1,80,66c-1.07-5.48-1.83-6.33-6.76-7.51a.45.45,0,0,1-.35-.44.46.46,0,0,1,.35-.45c4.93-1.18,5.69-2,6.76-7.51a.46.46,0,0,1,.45-.36.45.45,0,0,1,.45.36c1.07,5.49,1.83,6.33,6.76,7.51a.46.46,0,0,1,.35.45.45.45,0,0,1-.35.44c-4.93,1.18-5.69,2-6.76,7.51A.46.46,0,0,1,80.43,66.4ZM75.1,58.08c3.28,1,4.44,2.21,5.33,5.74.9-3.53,2.06-4.76,5.33-5.74-3.27-1-4.43-2.22-5.33-5.75C79.54,55.86,78.38,57.09,75.1,58.08Z"/><path d="M76.28,74.15a.45.45,0,0,1-.45-.37c-.26-1.34-.38-1.47-1.57-1.76a.45.45,0,0,1,0-.88c1.19-.29,1.31-.42,1.57-1.76a.45.45,0,0,1,.45-.37h0a.45.45,0,0,1,.44.37c.27,1.34.38,1.47,1.57,1.76a.45.45,0,0,1,0,.88c-1.19.29-1.3.42-1.57,1.76A.45.45,0,0,1,76.28,74.15Zm-.59-2.57a1.72,1.72,0,0,1,.59.61,1.64,1.64,0,0,1,.59-.61,1.64,1.64,0,0,1-.59-.61A1.72,1.72,0,0,1,75.69,71.58Z"/><path class="cls-1" d="M80,18.49l-.06,2.74c0,1.86-1.38,45.56-32.86,54.45l-.84.24-.85-.24C13.91,66.79,12.57,23.09,12.52,21.23l-.06-2.74,2.72-.41C29.5,16,44.17,4.65,44.32,4.53l1.91-1.48,1.91,1.48C48.29,4.65,63,16,77.29,18.08Z"/></svg>