<svg id="Layer_1" data-name="Layer 1" xmlns="http://www.w3.org/2000/svg" viewBox="0 0 200 200"><path d="M180.15,45.56a.75.75,0,0,1-.74-.6c-2.73-14-4.85-16.31-17.42-19.32a.76.76,0,0,1-.57-.73.74.74,0,0,1,.57-.73c12.57-3,14.69-5.37,17.42-19.32a.75.75,0,0,1,.74-.61.73.73,0,0,1,.73.61c2.74,14,4.86,16.3,17.43,19.32a.75.75,0,0,1,.57.73.77.77,0,0,1-.57.73c-12.57,3-14.69,5.36-17.43,19.32A.73.73,0,0,1,180.15,45.56Zm-15-20.65c9.77,2.66,12.54,5.64,15,16.25,2.41-10.61,5.18-13.59,14.94-16.25-9.76-2.67-12.53-5.65-14.94-16.25C177.74,19.26,175,22.24,165.2,24.91Z"/><path d="M169.63,64.69a.25.25,0,0,1-.24-.2c-.74-3.77-1.26-4.35-4.65-5.16a.25.25,0,0,1,0-.49c3.39-.82,3.91-1.39,4.65-5.16a.26.26,0,0,1,.49,0c.74,3.77,1.26,4.34,4.65,5.16a.26.26,0,0,1,.19.24.26.26,0,0,1-.19.25c-3.39.81-3.91,1.39-4.65,5.16A.27.27,0,0,1,169.63,64.69Zm-3.84-5.61c2.43.7,3.21,1.54,3.84,4.17.63-2.63,1.42-3.47,3.85-4.17-2.43-.69-3.22-1.53-3.85-4.16C169,57.55,168.22,58.39,165.79,59.08Z"/><path d="M146.41,196H20.51a1,1,0,1,1,0-2h125.9a1,1,0,0,1,0,2Z"/><path d="M79.42,184.67a.84.84,0,0,1-.27,0l-2-.55C4.46,163.53,1.11,62.39,1,58.1L.87,51.8a1,1,0,0,1,.85-1L8,49.86C40.76,45,74.08,19.21,74.41,19l4.38-3.41a1,1,0,0,1,1.23,0L84.41,19c.34.27,34,26.12,66.46,30.91l6.23.93a1,1,0,0,1,.85,1l-.13,6.29c-.11,4.3-3.45,105.44-76.2,126l-1.93.55A.84.84,0,0,1,79.42,184.67ZM2.89,52.64,3,58.05c.1,4.23,3.4,104,74.74,124.11l1.67.47,1.66-.47C152.42,162,155.71,62.28,155.82,58.05l.12-5.41-5.36-.8C117.73,47,83.48,20.77,83.16,20.51L79.4,17.6l-3.76,2.93c-.33.26-34.07,26.4-67.39,31.31Z"/><path d="M75.62,100.49a.36.36,0,0,1-.3-.15C72,96,71.85,95.9,67.07,95.17l.27,2.26a.38.38,0,0,1-.27.41l-.45.13a.37.37,0,0,1-.29,0,.38.38,0,0,1-.18-.23l-.92-3.22-3.4-1.83L59,95.07a.39.39,0,0,1-.54,0l-.33-.4a.37.37,0,0,1,0-.5l2.49-2.67L60.08,91a7.93,7.93,0,0,1-1.43-1.31,1.58,1.58,0,0,0-2.21-.59,3,3,0,0,1-4-1.16.37.37,0,0,1,0-.39.36.36,0,0,1,.33-.21h3.63l-4.19-7.9-3.77,1.87a.38.38,0,0,1-.5-.14l-.26-.43a.38.38,0,0,1,0-.29.38.38,0,0,1,.17-.24c.3-.18.61-.35.92-.52a13.09,13.09,0,0,0,2-1.3,3.69,3.69,0,0,0,1-1.79,1.36,1.36,0,0,0-.11-.6,2.43,2.43,0,0,1-.16-.81c0-1.36,0-2.74-.77-3.47a2.44,2.44,0,0,0-1.47-.57h-.95a.37.37,0,0,1-.38-.37.38.38,0,0,1,.35-.39,5.67,5.67,0,0,1,1,0H51l2.93-7-3.26-7a.38.38,0,0,1,.17-.5l.59-.3a.37.37,0,0,1,.29,0,.39.39,0,0,1,.23.19l3.37,6.69a7.94,7.94,0,0,1,2.17-1.79c1.37-.87,2.45-1.56,2-3.52a.38.38,0,0,1,.19-.42.37.37,0,0,1,.46.08c.51.56,1,1.09,1.59,1.63a20.63,20.63,0,0,1,3.35,4,26.12,26.12,0,0,1,2.15,5.21c.23.68.47,1.39.72,2.1l4.58-3.27a.38.38,0,0,1,.49,0l.37.38a.44.44,0,0,1,.11.29.4.4,0,0,1-.14.27l-5,4.08.57.76a19.74,19.74,0,0,0,1.88,2.29,2.36,2.36,0,0,0,3.29.37,9.46,9.46,0,0,1,3.35-1c.49-.07,1-.15,1.47-.26a.37.37,0,0,1,.45.28l.15.58a.38.38,0,0,1-.27.46l-4.75,1.21v.12l4.85,1.38c.49.14.89.25,1.29.39,3.14,1,3.14,1,5.15-1.3a.37.37,0,0,1,.49-.08.39.39,0,0,1,.15.47l-1.36,3.23L86.3,82.4l3.41-2.06a.38.38,0,0,1,.48.07l.39.43a.39.39,0,0,1,.09.29.36.36,0,0,1-.15.27c-.27.2-.56.39-.84.59a11.37,11.37,0,0,0-1.78,1.38,6.49,6.49,0,0,0-1.18,2.08,1.38,1.38,0,0,0,0,.62,3.12,3.12,0,0,1,0,.61c-.18,1.8-.37,3.59-.57,5.45l-.23,2.14a.39.39,0,0,1-.35.34.4.4,0,0,1-.4-.28l-.34-1.24-1.22.74a18,18,0,0,1-3.81,2,18.24,18.24,0,0,1-4.3.64l-1.35.11L76,99.93a.38.38,0,0,1-.13.5A.36.36,0,0,1,75.62,100.49Zm-9-6.15h.06c3.92.6,5.09.8,6.76,2.55l-.27-.5a.38.38,0,0,1,0-.36.38.38,0,0,1,.29-.2c.65-.08,1.3-.12,2-.17a18,18,0,0,0,4.12-.6,17,17,0,0,0,3.64-1.88c.55-.34,1.1-.68,1.67-1a.42.42,0,0,1,.33,0,.4.4,0,0,1,.16.13l0-.24c.2-1.86.39-3.65.58-5.45a2.5,2.5,0,0,0,0-.47,2.11,2.11,0,0,1,.08-1,7.41,7.41,0,0,1,1.35-2.34,7,7,0,0,1,.64-.57l-1.62,1a.38.38,0,0,1-.52-.12L84.31,80.7a.36.36,0,0,1,0-.35l.6-1.43c-1.12,1-1.9.79-4.48-.06l-1.19-.36L74,77a.38.38,0,0,1-.28-.37V76a3,3,0,0,1-3.47-.85,21.6,21.6,0,0,1-2-2.36c-.26-.35-.52-.7-.79-1a.38.38,0,0,1,.06-.53l2.4-2-2,1.41a.37.37,0,0,1-.57-.17c-.34-.88-.63-1.75-.91-2.59a25.74,25.74,0,0,0-2.08-5.07A20,20,0,0,0,61.19,59l-.84-.84c-.06,1.65-1.27,2.42-2.45,3.17a5.84,5.84,0,0,0-2.28,2.1.36.36,0,0,1-.33.21h0a.38.38,0,0,1-.34-.21l-2.36-4.68,2.1,4.52a.37.37,0,0,1,0,.31L51.61,71a.39.39,0,0,1-.36.23h-.16l0,0c1,.94,1,2.51,1,4a2,2,0,0,0,.13.57,1.84,1.84,0,0,1,.11,1A4.37,4.37,0,0,1,51.16,79c-.13.11-.25.21-.38.3l1.36-.67a.38.38,0,0,1,.5.16l4.67,8.78a.42.42,0,0,1,0,.38.4.4,0,0,1-.33.18H53.54a2.22,2.22,0,0,0,2.61.3,2.29,2.29,0,0,1,3.1.83,7.25,7.25,0,0,0,1.3,1.17c.27.2.55.43.85.68a.4.4,0,0,1,.14.27.42.42,0,0,1-.1.28L60,93.21l1.55-1.29a.37.37,0,0,1,.42,0l3.77,2a.33.33,0,0,1,.18.23l.47,1.62-.12-1a.37.37,0,0,1,.12-.31A.36.36,0,0,1,66.64,94.34ZM77.07,74.81a8.93,8.93,0,0,0-2.11.54ZM75,91.47A4.72,4.72,0,0,1,70.34,87a4.61,4.61,0,0,1,1.34-3.4A4.79,4.79,0,0,1,75,82.17a4.63,4.63,0,0,1,4.63,4.6,4.76,4.76,0,0,1-4.58,4.7Zm0-8.54a3.84,3.84,0,0,0-2.75,1.16,3.89,3.89,0,0,0-1.12,2.84A4,4,0,0,0,75,90.71h.08a4,4,0,0,0,3.84-3.93h0A3.88,3.88,0,0,0,75,82.93Zm-12.08,0-.16,0a3,3,0,0,1-1.46-1.07c-.16-.18-.32-.36-.48-.51a.33.33,0,0,1-.12-.28.38.38,0,0,1,.12-.28c.17-.15.33-.33.49-.5a3.08,3.08,0,0,1,1.48-1.08c.49-.1.92.3,1.52.85.26.24.56.51.89.77a.35.35,0,0,1,.14.3.38.38,0,0,1-.16.31c-.33.23-.62.48-.88.7C63.73,82.57,63.32,82.92,62.89,82.92ZM61.59,81l.24.27a2.65,2.65,0,0,0,1.06.85c.11,0,.59-.37.89-.62s.34-.3.54-.46c-.2-.16-.38-.33-.55-.49s-.73-.67-.87-.67h0a2.62,2.62,0,0,0-1.06.85Zm-.4-8.78c-.1,0-.2,0-.28-.12s-.33-.32-.51-.48a3,3,0,0,1-1.1-1.45c-.11-.48.29-.92.85-1.52.24-.27.51-.56.77-.9a.37.37,0,0,1,.61,0c.24.35.49.66.71.93.48.6.86,1.07.79,1.59A2.43,2.43,0,0,1,62,71.7c-.18.15-.36.3-.51.45A.39.39,0,0,1,61.19,72.26Zm0-3.61-.49.55a3.34,3.34,0,0,0-.67.86,2.57,2.57,0,0,0,.87,1l.29.27.29-.24c.35-.3.75-.63.79-.89s-.31-.61-.64-1Z"/><path d="M118.15,109.56a10.41,10.41,0,0,1-3.36-.64,2.46,2.46,0,0,1-1.67-1.62,2.83,2.83,0,0,1,.71-2.52,5.48,5.48,0,0,1,.59-.59,3.36,3.36,0,0,0,.56-.58c1.09-1.51,2-2.76,2.7-3.94a9.58,9.58,0,0,0,.56-1.11,11.65,11.65,0,0,1,.59-1.17c1-1.64,2.34-2.32,3.91-2a3.94,3.94,0,0,1,3.05,3.19,5.07,5.07,0,0,1,.18,1.27c0,.09,0,.16,0,.21v0c-.08,4.79-2.93,8.74-6.76,9.39A6.56,6.56,0,0,1,118.15,109.56Zm3.91-13.5a3,3,0,0,0-2.58,1.73,10.08,10.08,0,0,0-.55,1.09,10.42,10.42,0,0,1-.61,1.2c-.76,1.19-1.62,2.46-2.72,4a4,4,0,0,1-.67.69,4.1,4.1,0,0,0-.51.51,2.12,2.12,0,0,0-.57,1.84,1.78,1.78,0,0,0,1.2,1.1,8.38,8.38,0,0,0,4,.52c3.47-.59,6.05-4.22,6.13-8.63,0-.06,0-.13,0-.23a5.69,5.69,0,0,0-.16-1.11,3.21,3.21,0,0,0-2.46-2.64A3.39,3.39,0,0,0,122.06,96.06Z"/><path d="M122.34,100.47h-.1a1.73,1.73,0,0,1-.85-.62,3.31,3.31,0,0,0-.26-.27.26.26,0,0,1-.09-.22.29.29,0,0,1,.1-.23l.26-.26a1.67,1.67,0,0,1,.85-.62c.32-.07.58.18.92.49.14.13.29.27.47.41a.3.3,0,0,1,.12.24.28.28,0,0,1-.13.24c-.18.13-.33.27-.47.39A1.47,1.47,0,0,1,122.34,100.47Zm-.57-1.12.07.08c.18.19.36.4.52.43a2.67,2.67,0,0,0,.4-.32l.21-.17c-.07-.07-.15-.13-.21-.2a2.14,2.14,0,0,0-.43-.33,1.57,1.57,0,0,0-.49.43Z"/><path d="M110.43,127.19a1.83,1.83,0,0,1-.5-.07,2.85,2.85,0,0,1-1.84-1.87,6.09,6.09,0,0,1-.22-.81,4.1,4.1,0,0,0-.22-.77c-.77-1.7-1.43-3.07-2.08-4.29a9.25,9.25,0,0,0-.68-1,10.41,10.41,0,0,1-.72-1.1c-.92-1.7-.86-3.18.18-4.4a3.94,3.94,0,0,1,4.28-1.07,5.74,5.74,0,0,1,1.19.48l.19.09,0,0c4.11,2.45,6.12,6.89,4.78,10.54a9.15,9.15,0,0,1-2.68,3.57A2.66,2.66,0,0,1,110.43,127.19Zm-3.26-14.85a2.78,2.78,0,0,0-2.24,1c-.83,1-.86,2.13-.1,3.55a11.76,11.76,0,0,0,.67,1,9.55,9.55,0,0,1,.74,1.13c.66,1.24,1.32,2.62,2.1,4.34a4,4,0,0,1,.27.92,4.26,4.26,0,0,0,.19.7,2.13,2.13,0,0,0,1.31,1.41,1.77,1.77,0,0,0,1.56-.5,8.27,8.27,0,0,0,2.46-3.25c1.21-3.31-.66-7.35-4.44-9.61l-.21-.1a5.21,5.21,0,0,0-1-.42A5,5,0,0,0,107.17,112.34Z"/><path d="M107.11,116.34a.31.31,0,0,1-.3-.24,2.42,2.42,0,0,0-.1-.36,1.75,1.75,0,0,1-.11-1c.11-.3.45-.41.88-.55.18-.06.38-.12.59-.21a.36.36,0,0,1,.27,0,.3.3,0,0,1,.15.23c0,.22.06.43.09.61.09.44.15.78-.06,1a1.7,1.7,0,0,1-1,.43l-.36.09Zm.83-1.71-.28.09a1.81,1.81,0,0,0-.5.2,1.74,1.74,0,0,0,.13.64l0,.11.11,0a1.34,1.34,0,0,0,.63-.23,4.1,4.1,0,0,0-.07-.51A2.56,2.56,0,0,1,107.94,114.63Z"/><path d="M125,154.25a1,1,0,0,1-.63-.22L2.8,53.71a1,1,0,1,1,1.27-1.55l121.6,100.32a1,1,0,0,1-.64,1.77Z"/><path d="M100.08,149.54H100c-2.56-.67-4.57-4.25-3.93-7,.26-1.09.49-2.18.73-3.36.11-.55.23-1.11.35-1.69a.37.37,0,0,1,.29-.3.39.39,0,0,1,.39.15l.39.53c1.63,2.21,3.31,4.5,2.29,7.82a6.61,6.61,0,0,0-.09,2.32c0,.39,0,.77,0,1.14a.39.39,0,0,1-.38.38Zm-2.37-11.06c-.06.3-.12.58-.18.86-.24,1.19-.47,2.29-.73,3.39a5.73,5.73,0,0,0,2.89,5.89c0-.18,0-.36,0-.54a7.08,7.08,0,0,1,.12-2.6,6,6,0,0,0,.26-1.24c-.18.12-.33.24-.47.35-.46.36-.81.64-1.21.55a2,2,0,0,1-1-.83c-.1-.12-.21-.25-.31-.35a.34.34,0,0,1-.11-.28.39.39,0,0,1,.11-.27l.29-.32c.29-.35.59-.7,1-.69a2.69,2.69,0,0,1,1.24.59l.5.33C99.89,141.5,98.84,140,97.71,138.48Zm.07,5.21.12.14c.2.25.43.53.62.57a3.65,3.65,0,0,0,.57-.4l.27-.21-.26-.17a2.16,2.16,0,0,0-.87-.46s-.24.27-.36.42Z"/><path d="M122.88,128.26h-.09c-2.56-.67-4.58-4.25-3.93-7,.26-1.08.48-2.17.72-3.34.12-.55.23-1.12.36-1.72a.38.38,0,0,1,.29-.29.39.39,0,0,1,.39.15l.39.53c1.63,2.21,3.31,4.5,2.29,7.82a6.38,6.38,0,0,0-.09,2.32c0,.39.05.77.05,1.14a.39.39,0,0,1-.38.38Zm-2.37-11.06-.18.88c-.24,1.18-.47,2.28-.73,3.37a5.74,5.74,0,0,0,2.88,5.89l0-.54a7.08,7.08,0,0,1,.12-2.6,6,6,0,0,0,.26-1.24c-.18.12-.33.25-.48.36-.45.35-.81.63-1.2.54a2,2,0,0,1-1-.83c-.1-.12-.21-.25-.31-.35a.34.34,0,0,1-.11-.28.4.4,0,0,1,.11-.27,3,3,0,0,0,.28-.32c.3-.35.59-.7,1-.69a2.65,2.65,0,0,1,1.24.59l.5.33C122.69,120.22,121.64,118.74,120.51,117.2Zm.07,5.21.12.14c.2.25.43.53.62.57a3.25,3.25,0,0,0,.56-.4l.28-.21-.25-.17a2.25,2.25,0,0,0-.88-.46s-.24.27-.36.42Z"/><path d="M47.79,142.17h-.11c-5-1.45-8-4.38-7.91-7.63-.5-6.23,4.1-11.08,8.59-12.93a.37.37,0,0,1,.31,0c4.44,2.25,7.49,5.14,8.14,7.73a4.21,4.21,0,0,1-.55,3.42,5.85,5.85,0,0,1-1,4.4,12.05,12.05,0,0,1-7.44,5Zm.7-19.8c-4.19,1.8-8.42,6.32-8,12.14-.1,2.91,2.69,5.53,7.28,6.89a11.19,11.19,0,0,0,6.85-4.65,5.09,5.09,0,0,0,.82-4,.35.35,0,0,1,.06-.31,3.5,3.5,0,0,0,.54-2.94C55.48,127.17,52.65,124.5,48.49,122.37Z"/></svg>