<svg id="Layer_1" data-name="Layer 1" xmlns="http://www.w3.org/2000/svg" viewBox="0 0 200 200"><path d="M72.6,75.43c-8.48,0-17.43-.29-21.14-.66a1,1,0,0,1-.9-1.08c.75-8.78,3.24-9.54,8.35-10.3a28.33,28.33,0,0,0,9.67-2.9c13-6.69,27.2-23.75,35.66-33.94,1.66-2,3.1-3.74,4.33-5.16a4,4,0,0,1,6.78,1.14l.15.38c4.23,10.46,8.35,20.92,8.25,23.91C122.8,74,122.43,75,113.81,75h-1.1a1,1,0,0,1-1-.77l-5-21.05L93.88,70.55a11.37,11.37,0,0,1-8.39,4.57C82,75.34,77.39,75.43,72.6,75.43ZM52.65,72.87a324.37,324.37,0,0,0,32.71.25,9.29,9.29,0,0,0,6.91-3.76l14.18-19a1,1,0,0,1,1.77.37L113.49,73h.31c6.9,0,7,0,8-26.29.1-2.82-5.23-16-8.1-23.09l-.15-.38A2,2,0,0,0,111.94,22a2,2,0,0,0-1.86.67c-1.21,1.41-2.64,3.13-4.3,5.12C97.22,38.14,82.9,55.39,69.5,62.27a30.61,30.61,0,0,1-10.29,3.1C55,66,53.35,66.24,52.65,72.87Z"/><path d="M197.68,104.84H2.32a1,1,0,1,1,0-2H197.68a1,1,0,0,1,0,2Z"/><path d="M95,143.46a49.33,49.33,0,0,1-29.5-9.69,1,1,0,1,1,1.19-1.61,47.76,47.76,0,0,0,55.94.5,1,1,0,1,1,1.16,1.62A49.34,49.34,0,0,1,95,143.46Z"/><path d="M95,160.51a66.63,66.63,0,0,1-44.48-17A1,1,0,0,1,51.81,142a64.78,64.78,0,0,0,86,.29,1,1,0,0,1,1.41.09,1,1,0,0,1-.09,1.41A66.7,66.7,0,0,1,95,160.51Z"/><path d="M95,180a85.74,85.74,0,0,1-60.5-24.78,1,1,0,0,1,1.4-1.43,84.24,84.24,0,0,0,115.35,2.68,1,1,0,0,1,1.34,1.49A86.11,86.11,0,0,1,95,180Z"/><path d="M152.28,74.5h0a.74.74,0,0,1-.73-.6c-1.38-7-2.35-8.11-8.67-9.63a.75.75,0,0,1,0-1.46c6.32-1.52,7.29-2.6,8.67-9.63a.74.74,0,0,1,.73-.6.75.75,0,0,1,.74.6c1.38,7,2.35,8.11,8.66,9.63a.75.75,0,0,1,0,1.46c-6.31,1.52-7.28,2.6-8.66,9.63A.75.75,0,0,1,152.28,74.5Zm-6.38-11c3.78,1.21,5.27,2.79,6.38,6.84,1.12-4,2.61-5.63,6.39-6.84-3.78-1.22-5.27-2.8-6.39-6.84C151.17,60.74,149.68,62.32,145.9,63.54Z"/><path d="M142.81,90.24a.26.26,0,0,1-.25-.2c-.66-3.38-1.13-3.9-4.17-4.63a.26.26,0,0,1-.19-.25.26.26,0,0,1,.19-.24c3-.73,3.51-1.25,4.17-4.63a.26.26,0,0,1,.49,0c.67,3.38,1.13,3.9,4.17,4.63a.25.25,0,0,1,0,.49c-3,.73-3.5,1.25-4.17,4.63A.25.25,0,0,1,142.81,90.24Zm-3.38-5.08c2.11.62,2.82,1.37,3.38,3.65.56-2.27,1.27-3,3.37-3.65-2.1-.61-2.81-1.37-3.37-3.64C142.25,83.79,141.54,84.55,139.43,85.16Z"/></svg>