<svg id="Layer_1" data-name="Layer 1" xmlns="http://www.w3.org/2000/svg" viewBox="0 0 200 200"><path d="M101.74,62.85a1,1,0,0,1-.93-.62L93.12,43.41a1,1,0,0,1,0-.77,1,1,0,0,1,.55-.54L181.3,6.59h0a8.69,8.69,0,0,1,6.73.2,8.05,8.05,0,0,1,4.33,4.64l4.14,10.14a8.69,8.69,0,0,1-.19,6.75,8.07,8.07,0,0,1-4.65,4.33L102.06,62.8A.89.89,0,0,1,101.74,62.85ZM95.35,43.58l7,17L191,30.76a6.13,6.13,0,0,0,3.48-3.27,6.63,6.63,0,0,0,.15-5.17L190.5,12.14a6.08,6.08,0,0,0-3.29-3.53,6.61,6.61,0,0,0-5.16-.16Z"/><path d="M82,104.88a6.48,6.48,0,0,1-6.1-4.09l-1.29-2.92a6.19,6.19,0,0,1-.14-4.64,5.38,5.38,0,0,1,2.39-2.86A7.84,7.84,0,0,0,76.7,85c-1.09-2.41-3.69-3.7-6.2-5C68.25,79,66.12,77.89,65.38,76L59.63,61.42c-2.87-7.14-10.5-26.11,11.79-54.71a1,1,0,0,1,1.23-.28l4.08,2a1,1,0,0,1,.47,1.31c-.07.15-7.08,16.18-.87,32.34.08.18,2.49,5.43,7.47,3.47,1.74-.54,2.51-.84,2.52-.84l3.1-1.23a1,1,0,0,1,.77,0,1,1,0,0,1,.53.55l7.36,19.11a1,1,0,0,1-.59,1.3c-1.19.42-4.45,1.63-5.32,2.08a.38.38,0,0,1-.13.06,4.92,4.92,0,0,0-2.62,2.76,11.49,11.49,0,0,0,.29,9c1.05,2.93,2.66,4.38,3.73,4.74a1.28,1.28,0,0,0,1.16-.06,1.17,1.17,0,0,1,.33-.14c2.16-.45,5,1.71,5.95,4.47l1.37,3.1A6.6,6.6,0,0,1,98.56,99l-14.19,5.44A7.5,7.5,0,0,1,82,104.88ZM72.5,8.58c-21,27.33-13.75,45.3-11,52.1l5.75,14.59c.46,1.17,2.25,2.06,4.15,3,2.69,1.34,5.75,2.86,7.15,6a9.79,9.79,0,0,1,0,7.25A1,1,0,0,1,78,92a3.33,3.33,0,0,0-1.72,1.93,4.15,4.15,0,0,0,.08,3.12l1.31,3v0a4.59,4.59,0,0,0,6,2.57l14.15-5.42a4.57,4.57,0,0,0,2.55-6L99,88.11c-.62-1.87-2.48-3.38-3.53-3.25a3.35,3.35,0,0,1-2.7.15c-2-.68-3.86-2.89-4.94-5.91a13.43,13.43,0,0,1-.26-10.57,6.8,6.8,0,0,1,3.72-3.8c.9-.46,3.2-1.32,4.54-1.81L89.22,45.7,87,46.56s-.83.32-2.58.86c-5.35,2.11-8.87-2.07-10-4.59-5.75-14.95-.93-29.32.52-33Z"/><path d="M128.5,85.53h0a1,1,0,0,1-1-.81c-.87-4.46-1.37-5-5.35-6a1,1,0,0,1,0-2c4-1,4.48-1.51,5.35-6a1,1,0,0,1,2,0c.88,4.46,1.38,5,5.35,6a1,1,0,0,1,0,2c-4,1-4.47,1.51-5.35,6A1,1,0,0,1,128.5,85.53Zm-2.83-7.75a5.17,5.17,0,0,1,2.83,3,5.19,5.19,0,0,1,2.84-3,5.24,5.24,0,0,1-2.84-3A5.22,5.22,0,0,1,125.67,77.78Z"/><path d="M192.79,121.33H3.9a1,1,0,0,1,0-2H192.79a1,1,0,0,1,0,2Z"/><path d="M93.47,158.67a47.72,47.72,0,0,1-28.55-9.38,1,1,0,1,1,1.19-1.61,46.13,46.13,0,0,0,54.06.48,1,1,0,0,1,1.16,1.63A47.8,47.8,0,0,1,93.47,158.67Z"/><path d="M93.47,175.16a64.45,64.45,0,0,1-43-16.43,1,1,0,1,1,1.34-1.49,62.58,62.58,0,0,0,83.09.28,1,1,0,1,1,1.33,1.5A64.52,64.52,0,0,1,93.47,175.16Z"/><path d="M93.47,194A82.91,82.91,0,0,1,35,170a1,1,0,1,1,1.4-1.43,81.42,81.42,0,0,0,111.49,2.59,1,1,0,1,1,1.33,1.49A83.26,83.26,0,0,1,93.47,194Z"/><path d="M62.93,109.29a1,1,0,0,1-.51-.14l-13-7.77a1,1,0,1,1,1-1.71l13,7.76a1,1,0,0,1,.34,1.37A1,1,0,0,1,62.93,109.29Z"/><path d="M45.43,101.44h0a1,1,0,0,1-1-.8c-.36-1.85-.45-1.87-2-2.24a1,1,0,0,1,0-1.94c1.52-.37,1.61-.39,2-2.24a1,1,0,0,1,2,0c.36,1.85.45,1.87,2,2.24a1,1,0,0,1,0,1.94c-1.52.37-1.61.39-2,2.24A1,1,0,0,1,45.43,101.44Zm-.25-4a2.83,2.83,0,0,1,.25.24,1.81,1.81,0,0,1,.24-.24,1.88,1.88,0,0,1-.24-.25Z"/><path d="M130.82,95.86a1,1,0,0,1-1-.81c-.2-1-.2-1-1.06-1.22a1,1,0,0,1-.76-1,1,1,0,0,1,.76-1c.86-.21.86-.21,1.06-1.22a1,1,0,0,1,2,0c.19,1,.19,1,1.06,1.22a1,1,0,0,1,.76,1,1,1,0,0,1-.76,1c-.87.2-.87.2-1.06,1.22A1,1,0,0,1,130.82,95.86Z"/><path d="M105.3,111.15a1.05,1.05,0,0,1-.65-.23,1,1,0,0,1-.12-1.41l17.78-21.18a1,1,0,1,1,1.53,1.28l-17.78,21.18A1,1,0,0,1,105.3,111.15Z"/></svg>