<svg id="Layer_1" data-name="Layer 1" xmlns="http://www.w3.org/2000/svg" viewBox="0 0 200 200"><path d="M2,199a1,1,0,0,1-.71-.29,1,1,0,0,1,0-1.42l196-196a1,1,0,1,1,1.42,1.42l-196,196A1,1,0,0,1,2,199Z"/><path d="M94.46,183.71a14.43,14.43,0,0,1-12.65-7.8c-2.53-5-2-9.65,1.56-13.9a63.56,63.56,0,0,1,4.72-4.84c.5-.47,1-.94,1.49-1.42a17,17,0,0,0,4.52-6.3c1.05-2.91,1.93-6,1.33-9.22s-1.6-5.15-3.29-6.64c-1-.84-1.87-1.71-2.85-2.63l0,0c-.13.42-.25.81-.36,1.21L88,135.49c-.66,2.39-1.32,4.78-2,7.15a14.68,14.68,0,0,1-6.68,8.7,6.07,6.07,0,0,1-7.61-.6,9.68,9.68,0,0,1-3.15-5,5.63,5.63,0,0,1,1.37-5.5c1.35-1.41,2.83-2.72,4.25-4l.31-.28a12.79,12.79,0,0,0,3.67-4.39,7.66,7.66,0,0,0,.31-5.46,18,18,0,0,0-7-9.71c-3.7-2.55-6.63-2.53-10.45.07a25.77,25.77,0,0,0-5.79,5.63l-2.3,2.94c-2.14,2.74-4.35,5.57-6.59,8.32a22.33,22.33,0,0,1-6.56,5.81c-5.27,2.81-10.32,3.13-15,1-4.28-2-8.5-7.91-7.72-13.29.5-3.5,2.39-6.32,5.78-8.62a17.55,17.55,0,0,1,9.69-2.78l3,0c2,0,4.13,0,6.18-.15A28.5,28.5,0,0,0,53.2,112a50,50,0,0,0,9-5.61c3.84-3.16,5.81-6.88,6-11.37.21-4.84-2.85-8.28-7.62-8.57a29.68,29.68,0,0,0-4.67.21c-.77.07-1.53.14-2.29.19l-.59,0c-.76,0-1.55.09-2.34.07C47,86.84,44.85,84.79,44.46,81a10.5,10.5,0,0,1,3.24-8.36,9.16,9.16,0,0,1,7.86-2.37,35.89,35.89,0,0,1,5.21,1.36c.71.22,1.43.44,2.14.64l1.89.56c1.2.36,2.43.73,3.65,1A7.11,7.11,0,0,0,73,73.19,4.43,4.43,0,0,0,75,67.86,13.15,13.15,0,0,0,71,62.08c-1.55-1.39-3.25-2.7-4.89-4l-2-1.53a17.77,17.77,0,0,1-4.4-4.26c-2.59-4-2.85-8.31-.79-12.94a11.87,11.87,0,0,1,5.63-6.25L64.7,33a1.43,1.43,0,0,1,.27-.15l3.32-1.22.2-.05a17.25,17.25,0,0,1,8.46.88c6.38,2.32,10.5,6.48,12.25,12.39a38.59,38.59,0,0,1,1.08,6c.1.79.2,1.59.33,2.38.19,1.27.37,2.55.54,3.83.34,2.42.68,4.91,1.14,7.32a18,18,0,0,0,4.07,8.41,6.13,6.13,0,0,0,.76.78c2,1.72,3.64,1.8,5.77.27a12,12,0,0,0,4.83-8.44c.26-1.88.43-3.82.59-5.69.09-1,.18-2.07.28-3.1l0-.38c.13-1.29.27-2.63.5-4a9.15,9.15,0,0,1,4.17-6.43,10.12,10.12,0,0,1,8-1A17.34,17.34,0,0,1,131.52,53a11.9,11.9,0,0,1,1.09,10.43,14.5,14.5,0,0,1-4.14,5.85c-1,.91-2,1.81-3.06,2.67s-2.13,1.82-3.15,2.77a19.4,19.4,0,0,0-2.7,3.11,2.31,2.31,0,0,0,.2,2.92,8.44,8.44,0,0,0,.94,1.07c1.77,1.72,3.47,1.88,5.33.48a27,27,0,0,0,3.71-3.55,16.76,16.76,0,0,1,4.31-3.67,8.2,8.2,0,0,1,8.57.63,3.18,3.18,0,0,1,.88,1A11.26,11.26,0,0,1,145,82.4a6.08,6.08,0,0,1-4,5.73c-1.18.48-2.36.94-3.54,1.4s-2.36.91-3.53,1.39a15.51,15.51,0,0,0-2.55,1.32c-1.88,1.24-2.53,3.19-3,5.92a7.1,7.1,0,0,0,.08,2.17,3.23,3.23,0,0,0,2.63,2.72,6.53,6.53,0,0,0,3.93-.13c1-.34,2-.7,3-1.06,1.52-.53,3.09-1.08,4.65-1.58l2.27-.74c2.65-.87,5.39-1.77,8.17-2.41,6-1.38,11.2,0,15.48,4a9.21,9.21,0,0,1,2.6,9.47c-.93,3.63-2.53,6.18-4.89,7.81-4.47,3.06-8.66,4-12.82,2.84a23.25,23.25,0,0,1-7.24-4l-.88-.64c-2.12-1.55-4.31-3.15-6.57-4.52a15.2,15.2,0,0,0-4.34-1.65c-2.9-.67-4.87.33-6.2,3.17a11.56,11.56,0,0,0-.39,9.34,56.46,56.46,0,0,0,3.32,6.87l.9,1.66.26.5a47.54,47.54,0,0,1,2.88,6,6.24,6.24,0,0,1-3.73,8.22,6.41,6.41,0,0,1-8.24-3,18.84,18.84,0,0,1-1.83-5.76l-.11-.59a35.4,35.4,0,0,0-1-3.81,3.23,3.23,0,0,0-3.1-2.41,9.17,9.17,0,0,0-8.88,4.38,29.08,29.08,0,0,0-4.12,22.3c.53,2.42,1.26,4.86,2,7.22l.54,1.8c1.2,4.09.93,7.62-.81,10.8a13.46,13.46,0,0,1-6.34,5.46A12.3,12.3,0,0,1,94.46,183.71Zm-5.67-55.59a1,1,0,0,1,.68.27l1.19,1.11c1,.91,1.87,1.77,2.8,2.59,2,1.8,3.3,4.27,3.94,7.77S97.12,147,96,150.13a18.82,18.82,0,0,1-5,7.05c-.49.49-1,1-1.5,1.44a61.15,61.15,0,0,0-4.57,4.68c-3,3.62-3.47,7.45-1.31,11.7,2.83,5.55,9.94,8.23,15.23,5.76a11.1,11.1,0,0,0,5.43-4.62c1.5-2.72,1.7-5.66.65-9.26l-.54-1.8c-.71-2.39-1.46-4.87-2-7.36a31,31,0,0,1,4.38-23.8,11.21,11.21,0,0,1,10.7-5.3,5.19,5.19,0,0,1,4.87,3.78,34.93,34.93,0,0,1,1,4l.12.6a16.62,16.62,0,0,0,1.6,5.16,4.44,4.44,0,0,0,5.74,2.18,4.24,4.24,0,0,0,2.62-5.68,47.82,47.82,0,0,0-2.77-5.78l-.27-.5c-.29-.55-.59-1.1-.89-1.65a56.37,56.37,0,0,1-3.43-7.12,13.67,13.67,0,0,1,.45-10.89c1.73-3.68,4.65-5.15,8.46-4.27a16.8,16.8,0,0,1,4.93,1.9c2.33,1.4,4.55,3,6.71,4.6l.87.63a21.25,21.25,0,0,0,6.6,3.67c3.61,1,7.15.18,11.16-2.56,1.94-1.34,3.28-3.51,4.09-6.65a7.22,7.22,0,0,0-2-7.52,14.19,14.19,0,0,0-13.66-3.47c-2.69.62-5.39,1.51-8,2.36l-2.29.74c-1.53.49-3.09,1-4.6,1.57l-3.07,1.07a8.58,8.58,0,0,1-5.11.15,5.23,5.23,0,0,1-4.06-4.3,8.5,8.5,0,0,1-.08-2.82c.43-2.75,1.19-5.54,3.83-7.28a17,17,0,0,1,2.89-1.49c1.18-.49,2.37-1,3.57-1.42s2.34-.9,3.5-1.38a4.08,4.08,0,0,0,2.76-4,9.29,9.29,0,0,0-1.25-4.7,1.38,1.38,0,0,0-.35-.36,6.17,6.17,0,0,0-6.38-.45,14.92,14.92,0,0,0-3.79,3.25,28.91,28.91,0,0,1-4,3.82c-2.65,2-5.46,1.74-7.93-.65a11.25,11.25,0,0,1-1.15-1.33,4.27,4.27,0,0,1-.23-5.24,20.7,20.7,0,0,1,3-3.44c1-1,2.15-1.92,3.22-2.82s2-1.73,3-2.63a12.64,12.64,0,0,0,3.62-5A10,10,0,0,0,129.8,54a15.44,15.44,0,0,0-9-7.32,8.07,8.07,0,0,0-6.43.81,7.21,7.21,0,0,0-3.26,5.08c-.22,1.25-.35,2.54-.48,3.8l0,.38c-.1,1-.19,2-.28,3.07-.16,1.9-.33,3.87-.6,5.81a14,14,0,0,1-5.64,9.78c-2.89,2.07-5.59,1.94-8.27-.4a8.8,8.8,0,0,1-1-1,20,20,0,0,1-4.5-9.32c-.47-2.47-.82-5-1.16-7.42q-.26-1.91-.54-3.81c-.13-.8-.23-1.62-.33-2.43a36.11,36.11,0,0,0-1-5.66c-1.56-5.26-5.26-9-11-11.07a15.34,15.34,0,0,0-7.39-.8l-3,1.12a1.77,1.77,0,0,1-.39.27,9.79,9.79,0,0,0-4.74,5.29c-1.8,4-1.59,7.64.64,11A15.94,15.94,0,0,0,65.3,55l.8.62,1.19.92c1.67,1.29,3.4,2.62,5,4.06a15.21,15.21,0,0,1,4.62,6.66A6.48,6.48,0,0,1,73.79,75a9,9,0,0,1-5.78.8c-1.28-.29-2.56-.67-3.79-1-.62-.19-1.23-.38-1.86-.55s-1.46-.44-2.18-.67a34.86,34.86,0,0,0-4.93-1.29,7,7,0,0,0-6.17,1.86,8.53,8.53,0,0,0-2.63,6.7C46.74,83.63,48,84.87,50.8,85c.7,0,1.41,0,2.16-.07l.59,0c.73,0,1.48-.11,2.22-.18a31.54,31.54,0,0,1,5-.22c5.86.35,9.77,4.74,9.5,10.66a17.18,17.18,0,0,1-6.74,12.82,52,52,0,0,1-9.39,5.86,30.39,30.39,0,0,1-12.4,3.51c-2.09.1-4.21.13-6.26.15l-3,0a15.32,15.32,0,0,0-8.61,2.44c-2.93,2-4.5,4.3-4.92,7.24-.64,4.38,3,9.52,6.58,11.19,4.15,1.93,8.47,1.63,13.23-.9a20.45,20.45,0,0,0,5.95-5.32c2.22-2.73,4.43-5.55,6.56-8.28l2.3-3a28.18,28.18,0,0,1,6.24-6c4.52-3.07,8.32-3.09,12.71,0a19.77,19.77,0,0,1,7.79,10.76,9.7,9.7,0,0,1-.37,6.82,14.47,14.47,0,0,1-4.19,5.11l-.31.28c-1.4,1.24-2.84,2.52-4.14,3.87a3.63,3.63,0,0,0-.88,3.62A7.76,7.76,0,0,0,73,149.22a4.11,4.11,0,0,0,5.27.41,12.71,12.71,0,0,0,5.8-7.55c.7-2.37,1.36-4.74,2-7.12l.93-3.35c.16-.56.34-1.11.53-1.73l.33-1.06a1,1,0,0,1,.7-.67A1.15,1.15,0,0,1,88.79,128.12Z"/><path d="M82.5,23.13a.59.59,0,0,1-.58-.48c-1.4-7.11-2.38-8.2-8.77-9.73a.59.59,0,0,1-.45-.58.58.58,0,0,1,.45-.57c6.39-1.54,7.37-2.63,8.77-9.74a.59.59,0,0,1,.58-.48h0a.6.6,0,0,1,.58.48c1.39,7.11,2.37,8.2,8.77,9.74a.59.59,0,0,1,.45.57.6.6,0,0,1-.45.58c-6.4,1.53-7.38,2.62-8.77,9.73A.6.6,0,0,1,82.5,23.13ZM75.59,12.34c4.24,1.28,5.75,2.87,6.91,7.45,1.16-4.58,2.66-6.17,6.91-7.45-4.25-1.27-5.75-2.87-6.91-7.45C81.34,9.47,79.83,11.07,75.59,12.34Z"/><path d="M131.5,36.51a.27.27,0,0,1-.25-.2c-.59-3-1-3.48-3.71-4.13a.24.24,0,0,1-.19-.24.26.26,0,0,1,.19-.24c2.71-.65,3.12-1.11,3.71-4.12a.26.26,0,0,1,.49,0c.59,3,1,3.47,3.71,4.12a.25.25,0,0,1,.2.24.24.24,0,0,1-.19.24c-2.71.65-3.13,1.12-3.72,4.13A.25.25,0,0,1,131.5,36.51Zm-2.93-4.57c1.8.54,2.44,1.22,2.93,3.15.49-1.93,1.12-2.61,2.92-3.15-1.8-.54-2.43-1.21-2.92-3.15C131,30.73,130.37,31.4,128.57,31.94Z"/><path d="M23.7,114.3h0a.44.44,0,0,1-.43-.35c-1-5.19-1.73-6-6.4-7.11a.43.43,0,0,1,0-.84c4.67-1.12,5.39-1.92,6.4-7.11a.45.45,0,0,1,.85,0c1,5.19,1.74,6,6.4,7.11a.43.43,0,0,1,0,.84c-4.66,1.12-5.38,1.92-6.4,7.11A.44.44,0,0,1,23.7,114.3Zm-5.05-7.88c3.1.93,4.2,2.1,5.05,5.44.84-3.34,1.94-4.51,5-5.44-3.1-.93-4.2-2.09-5-5.44C22.85,104.33,21.75,105.49,18.65,106.42Z"/></svg>