<svg id="Layer_1" data-name="Layer 1" xmlns="http://www.w3.org/2000/svg" viewBox="0 0 200 200"><path d="M18.28,130.5h0a1,1,0,0,1-1-.8c-2.07-10.58-3.53-12.21-13-14.49a1,1,0,0,1-.77-1,1,1,0,0,1,.77-1c9.51-2.28,11-3.9,13-14.48a1,1,0,0,1,2,0c2.08,10.58,3.54,12.2,13.05,14.48a1,1,0,0,1,.76,1,1,1,0,0,1-.76,1c-9.51,2.28-11,3.91-13,14.49A1,1,0,0,1,18.28,130.5Zm-10-16.26c6,1.86,8.25,4.24,10,10.68,1.7-6.44,3.95-8.82,10-10.68-6-1.86-8.25-4.25-9.95-10.69C16.58,110,14.34,112.38,8.33,114.24Z"/><path d="M10.22,145.55a1,1,0,0,1-1-.8c-.52-2.66-.78-2.8-3-3.33a1,1,0,0,1,0-1.94c2.19-.53,2.45-.68,3-3.33a1,1,0,0,1,2,0c.52,2.65.78,2.8,3,3.33a1,1,0,0,1,0,1.94c-2.18.53-2.44.67-3,3.33A1,1,0,0,1,10.22,145.55Zm-.92-5.1a3.33,3.33,0,0,1,.92,1,3.21,3.21,0,0,1,.92-1,3.33,3.33,0,0,1-.92-.95A3.47,3.47,0,0,1,9.3,140.45Z"/><path d="M183.94,199H45.83a1,1,0,1,1,0-2H183.94a1,1,0,0,1,0,2Z"/><path d="M110.45,186.57a.84.84,0,0,1-.27,0l-2.13-.6a92.53,92.53,0,0,1-32-16.18,1,1,0,0,1-.17-1.41,1,1,0,0,1,1.4-.17A90.86,90.86,0,0,0,108.59,184l1.86.52,1.85-.52c78.32-22.13,81.94-131.6,82.06-136.25l.13-6-6-.88C152,35.47,115,6.8,114.62,6.51l-4.18-3.24-4.19,3.25c-.37.29-37.35,29-73.89,34.34l-6,.88.13,6a221.19,221.19,0,0,0,7.13,46.81,1,1,0,1,1-1.93.51,222.54,222.54,0,0,1-7.2-47.28l-.15-6.9a1,1,0,0,1,.85-1l6.84-1C68.09,33.57,104.65,5.23,105,5l4.8-3.74a1,1,0,0,1,1.23,0L115.87,5c.37.29,37.24,28.67,72.95,33.93l6.84,1a1,1,0,0,1,.85,1l-.15,6.9a223.64,223.64,0,0,1-11.75,62.25c-14.05,40.34-38.87,66.58-71.77,75.87l-2.12.6A.8.8,0,0,1,110.45,186.57Z"/><path d="M34.69,129.59a1,1,0,0,1-.51-.14,1,1,0,0,1-.35-1.37L55.51,91.4a1,1,0,0,1,1.72,1L35.55,129.1A1,1,0,0,1,34.69,129.59Z"/><path d="M54.7,166.28a1.06,1.06,0,0,1-.51-.14,1,1,0,0,1-.35-1.37l21.68-36.69a1,1,0,1,1,1.72,1L55.56,165.79A1,1,0,0,1,54.7,166.28Z"/><path d="M35.68,159.85a.93.93,0,0,1-.5-.14,1,1,0,0,1-.36-1.37L74.53,91.15a1,1,0,0,1,1.72,1l-39.7,67.19A1,1,0,0,1,35.68,159.85Z"/></svg>