<svg id="Layer_1" data-name="Layer 1" xmlns="http://www.w3.org/2000/svg" viewBox="0 0 96 96"><defs><style>.cls-1,.cls-2,.cls-3,.cls-4{fill:none;stroke:#000;stroke-linecap:round;stroke-linejoin:round;}.cls-1{stroke-width:1.2px;}.cls-2{stroke-width:0.52px;}.cls-3{stroke-width:0.38px;}.cls-4{stroke-width:0.3px;}</style></defs><line class="cls-1" x1="18.18" y1="93" x2="77.82" y2="93"/><ellipse class="cls-2" cx="82.89" cy="7.22" rx="6.07" ry="6.72"/><ellipse class="cls-2" cx="79.34" cy="18.75" rx="2.43" ry="2.69"/><path class="cls-1" d="M84,24.22l-.06,3.12c-.06,2.12-1.57,51.89-37.43,62l-1,.27-1-.27C8.68,79.23,7.16,29.46,7.11,27.34L7,24.22l3.09-.46c16.31-2.4,33-15.29,33.19-15.43l2.17-1.69,2.18,1.69c.17.14,16.92,13,33.19,15.43Z"/><path class="cls-3" d="M39.75,34a17.49,17.49,0,0,0,1.34,1.67,1.35,1.35,0,0,0,1.86.21,8.37,8.37,0,0,1,2.34-.58l.07.29-2.49.63v.35l2.54.72.63.19c1.68.56,1.68.56,2.76-.7l-.72,1.69.77,1.2,1.85-1.11.19.21a10.89,10.89,0,0,0-1.32,1,3.51,3.51,0,0,0-.63,1.1c-.08.18,0,.43,0,.65l-.4,3.77c-.1-.34-.18-.63-.24-.85a16.15,16.15,0,0,1-2.67,1.44,16.4,16.4,0,0,1-3,.39l1,1.93c-1.76-2.26-1.76-2.26-4.45-2.67.06.48.11.92.16,1.37L39.1,47c-.15-.54-.31-1.07-.48-1.67l-1.87-1-1.51,1.28-.17-.2,1.37-1.47a7.87,7.87,0,0,1-1.09-1A1,1,0,0,0,34,42.58a1.3,1.3,0,0,1-1.77-.51h2.11l-2.32-4.36-2,1c0-.07-.09-.14-.13-.22a9.57,9.57,0,0,0,1.47-.92,2,2,0,0,0,.54-1c.06-.22-.13-.5-.13-.76,0-1.22-.08-2.31-1.77-2.19h1.53L33.07,30l-1.66-3.55.3-.16,1.82,3.62c.68-1.32,2.69-1.24,2.27-3.06a18.79,18.79,0,0,1,2.43,2.73,24.66,24.66,0,0,1,1.49,3.83l2.47-1.76.18.18L39.75,34m5.69,7.59a2.13,2.13,0,1,0-2.09,2.14,2.18,2.18,0,0,0,2.09-2.14m-7.12-2.82c-.49-.38-.82-.81-1-.76s-.59.47-.88.74c.29.26.54.66.87.73s.56-.35,1.06-.71m-1.85-6.48c-.38.49-.81.82-.76,1s.48.59.75.87c.26-.26.69-.5.73-.79s-.36-.59-.72-1.12"/><path class="cls-3" d="M68.41,48.18c0,2.28-1.37,4.16-3.2,4.47a4.22,4.22,0,0,1-2.1-.27c-.85-.31-1-1.05-.4-1.75.18-.22.42-.37.58-.59.47-.64.92-1.29,1.34-2,.23-.36.35-.78.58-1.14A1.65,1.65,0,0,1,67,46a1.8,1.8,0,0,1,1.37,1.45,3.36,3.36,0,0,1,.09.71"/><path class="cls-4" d="M67.34,47.83c-.27-.21-.44-.44-.57-.42s-.32.26-.48.4c.16.15.3.37.48.41s.3-.2.57-.39"/><path class="cls-3" d="M60.6,54.43c2,1.17,2.93,3.26,2.29,5a4.27,4.27,0,0,1-1.27,1.69c-.69.58-1.4.31-1.72-.53-.1-.25-.12-.54-.23-.79-.32-.72-.66-1.44-1-2.14-.2-.37-.5-.69-.7-1.06a1.64,1.64,0,0,1,.07-2,1.78,1.78,0,0,1,1.93-.47,4.06,4.06,0,0,1,.66.27"/><path class="cls-4" d="M59.77,55.19c-.31.13-.6.16-.65.28s.07.41.11.62c.21-.06.47-.08.59-.21s0-.36,0-.69"/><line class="cls-1" x1="68.12" y1="74.55" x2="7.82" y2="24.8"/><path class="cls-3" d="M54.47,66.77c.87,1.2,1.82,2.3,1.3,4a6.54,6.54,0,0,0,0,1.77,2.94,2.94,0,0,1-1.81-3.24c.19-.79.34-1.59.53-2.51m1.26,3.07c-.42-.24-.64-.47-.89-.48s-.32.28-.49.44c.19.19.36.49.58.54s.4-.24.8-.5"/><path class="cls-3" d="M65.78,56.22c.87,1.2,1.82,2.29,1.3,4a6.23,6.23,0,0,0,0,1.78,2.94,2.94,0,0,1-1.81-3.24c.18-.79.34-1.59.53-2.51M67,59.29c-.41-.25-.64-.47-.88-.49s-.33.29-.49.45c.19.19.35.49.58.54s.4-.24.79-.5"/><path class="cls-3" d="M33.81,64.35c.52,1.93-1.85,4.13-4,4.52-2.58-.76-3.83-2.22-3.78-3.6A6.43,6.43,0,0,1,30.17,59C32.85,60.38,35.07,62.54,33.81,64.35Z"/></svg>