<svg id="Layer_1" data-name="Layer 1" xmlns="http://www.w3.org/2000/svg" viewBox="0 0 200 200"><defs><style>.cls-1,.cls-2{fill:none;stroke:#000;stroke-linecap:round;stroke-linejoin:round;}.cls-2{stroke-width:2px;}</style></defs><ellipse class="cls-1" cx="24.47" cy="114.22" rx="12.93" ry="14.31"/><ellipse class="cls-1" cx="16.91" cy="138.79" rx="3.48" ry="3.85"/><line class="cls-2" x1="50.3" y1="192.75" x2="179.78" y2="192.75"/><path class="cls-2" d="M38,96a206.74,206.74,0,0,1-6.72-44.1l-.14-6.48,6.41-1c33.82-5,68.46-31.72,68.82-32L110.87,9l4.51,3.5c.35.28,35.1,27,68.83,32l6.41,1-.14,6.48c-.11,4.39-3.25,107.59-77.61,128.6l-2,.56-2-.56a85.36,85.36,0,0,1-29.68-15"/><line class="cls-2" x1="39.86" y1="127.68" x2="60.18" y2="93.29"/><line class="cls-2" x1="58.62" y1="162.07" x2="78.94" y2="127.68"/><line class="cls-2" x1="40.79" y1="156.05" x2="78.01" y2="93.06"/></svg>