<svg id="Layer_1" data-name="Layer 1" xmlns="http://www.w3.org/2000/svg" viewBox="0 0 200 200"><defs><style>.cls-1,.cls-2{fill:none;stroke:#000;stroke-linecap:round;stroke-linejoin:round;}.cls-1{stroke-width:2px;}</style></defs><path class="cls-1" d="M177.34,12.43a7.09,7.09,0,0,1,9.23,4l3.94,9.65a7.09,7.09,0,0,1-4,9.23L101.65,63.88,94.36,46.06Z"/><path class="cls-1" d="M78,100.38,76.79,97.6a4.63,4.63,0,0,1,2-6,8.29,8.29,0,0,0,0-6.1c-2.18-4.81-9.47-5.35-10.72-8.54-.59-1.47-2.9-7.36-5.12-13C60.57,57.79,52,40,73.69,12.25l3.86,1.88s-7,15.49-.85,31.36c0,0,2.66,6,8.31,3.82,1.64-.5,2.38-.79,2.38-.79l2.94-1.16,7,18.09s-4.1,1.47-5.15,2c-3.12,1.08-5.26,6.46-2.77,12.42,1.47,4.1,4.33,6,6,4.87,1.57-.34,3.84,1.46,4.54,3.6l1.33,3a5.28,5.28,0,0,1-3,6.83l-13.43,5.14A5.3,5.3,0,0,1,78,100.38Z"/><ellipse class="cls-2" cx="126.99" cy="78.96" rx="5.77" ry="6.39"/><line class="cls-1" x1="9" y1="119.25" x2="187.86" y2="119.25"/><path class="cls-1" d="M119.65,146.37a44.61,44.61,0,0,1-52.3-.46"/><path class="cls-1" d="M133.64,155.17a60.21,60.21,0,0,1-79.94-.26"/><path class="cls-1" d="M145.93,168.12a78,78,0,0,1-106.86-2.49"/><line class="cls-1" x1="52.63" y1="100.5" x2="64.9" y2="107.85"/><ellipse class="cls-2" cx="48.32" cy="97.56" rx="2.58" ry="2.86"/><ellipse class="cls-2" cx="129.19" cy="93.23" rx="1.71" ry="1.9"/><line class="cls-1" x1="121.85" y1="89.55" x2="105.02" y2="109.61"/></svg>