<svg id="Layer_1" data-name="Layer 1" xmlns="http://www.w3.org/2000/svg" viewBox="0 0 200 200"><defs><style>.cls-1,.cls-2,.cls-3,.cls-4{fill:none;stroke:#000;stroke-linecap:round;stroke-linejoin:round;}.cls-1{stroke-width:2px;}.cls-2{stroke-width:1.1px;}.cls-3{stroke-width:0.47px;}.cls-4{stroke-width:0.8px;}</style></defs><line class="cls-1" x1="191" y1="9.15" x2="8.31" y2="191.85"/><path class="cls-1" d="M70.42,37.62a15,15,0,0,1,7.43.78c5.32,1.93,9.21,5.41,10.84,10.93A58.87,58.87,0,0,1,90,57c.52,3.47.91,7,1.57,10.43a17.72,17.72,0,0,0,4,8.27,6.8,6.8,0,0,0,.8.81c2.16,1.9,4.19,2,6.54.32a12.06,12.06,0,0,0,4.88-8.49c.39-2.74.54-5.5.82-8.24.14-1.32.26-2.65.49-4,1-5.57,6.15-7.41,10.21-6.22a15.22,15.22,0,0,1,8.94,7.24,10.2,10.2,0,0,1,.94,8.93,12.73,12.73,0,0,1-3.62,5.08c-1.88,1.73-3.9,3.32-5.78,5.07a19.21,19.21,0,0,0-2.65,3,3.06,3.06,0,0,0,.2,3.8,9.57,9.57,0,0,0,1,1.13c1.93,1.87,4,2.13,6.18.52a26.35,26.35,0,0,0,3.58-3.43,14.6,14.6,0,0,1,3.78-3.23,6.69,6.69,0,0,1,7,.51,2,2,0,0,1,.57.63,9.61,9.61,0,0,1,1.28,4.85,4.74,4.74,0,0,1-3.16,4.51c-2.19.9-4.4,1.71-6.59,2.61a15.16,15.16,0,0,0-2.53,1.31c-2.19,1.44-2.79,3.77-3.16,6.15a7,7,0,0,0,.08,2.33,4,4,0,0,0,3.1,3.27,7.15,7.15,0,0,0,4.22-.13c2.39-.81,4.77-1.7,7.17-2.46,3.2-1,6.38-2.16,9.65-2.92A14.16,14.16,0,0,1,163,102.2a7.64,7.64,0,0,1,2.17,7.92,11.19,11.19,0,0,1-4.19,6.73c-3.35,2.29-7,3.67-11.18,2.52a21.34,21.34,0,0,1-6.59-3.66c-2.25-1.64-4.49-3.31-6.86-4.74a15,15,0,0,0-4.32-1.66c-3.2-.74-5.44.51-6.83,3.47a11.69,11.69,0,0,0-.39,9.43,68.45,68.45,0,0,0,4,8.06,48.94,48.94,0,0,1,2.89,6,4.9,4.9,0,0,1-3,6.47,5.09,5.09,0,0,1-6.52-2.42,18.38,18.38,0,0,1-1.71-5.65,33.3,33.3,0,0,0-.94-3.66,3.93,3.93,0,0,0-3.71-2.88,9.48,9.48,0,0,0-9.13,4.51,28,28,0,0,0-4,21.49c.63,2.86,1.52,5.66,2.35,8.47a11.68,11.68,0,0,1-.68,9.35,11.39,11.39,0,0,1-5.48,4.7c-5.31,2.49-12.49,0-15.42-5.79a10,10,0,0,1,1.34-11.93,79.82,79.82,0,0,1,5.72-5.77A16.77,16.77,0,0,0,95,146.91c1.06-2.94,1.87-6,1.28-9.09a11.24,11.24,0,0,0-3.37-6.71c-1.22-1.08-2.4-2.22-3.74-3.47-.31,1-.57,1.78-.79,2.57-.91,3.26-1.79,6.53-2.75,9.77a12.71,12.71,0,0,1-5.81,7.58,4.75,4.75,0,0,1-6-.48,8,8,0,0,1-2.64-4.15,4.3,4.3,0,0,1,1-4.25c1.27-1.32,2.64-2.53,4-3.74a13.33,13.33,0,0,0,3.86-4.61,8.13,8.13,0,0,0,.32-5.72,17.59,17.59,0,0,0-6.9-9.54c-3.8-2.63-7-2.55-10.79.05a25.44,25.44,0,0,0-5.61,5.45c-2.75,3.5-5.46,7-8.27,10.48A19.82,19.82,0,0,1,43,136.24c-4.24,2.25-8.65,3-13.17.87-3.76-1.74-7.31-7-6.66-11.42a10.55,10.55,0,0,1,5-7.39,15.42,15.42,0,0,1,8.53-2.43c2.85-.06,5.7,0,8.55-.18a27.44,27.44,0,0,0,11.18-3.17A47.29,47.29,0,0,0,65,107.17,15.06,15.06,0,0,0,71,95.9a8.18,8.18,0,0,0-8-9,56.28,56.28,0,0,0-6.6.37c-.89,0-1.76.13-2.64.1-3.06-.09-4.65-1.66-5-4.7-.43-4.15,3.09-10,9.28-9a56,56,0,0,1,6.73,1.84c1.75.49,3.46,1.07,5.22,1.47a7.4,7.4,0,0,0,4.79-.69,5.05,5.05,0,0,0,2.41-6.1,13.2,13.2,0,0,0-4-5.79c-1.83-1.63-3.8-3.1-5.73-4.61a19,19,0,0,1-4.63-4.31c-2.34-3.57-2.37-7.34-.67-11.17A10.19,10.19,0,0,1,67.05,39a1.49,1.49,0,0,0,.28-.23l3.09-1.13"/><ellipse class="cls-2" cx="83.34" cy="18.79" rx="8.59" ry="9.5"/><ellipse class="cls-3" cx="129.01" cy="37.06" rx="3.63" ry="4.02"/><ellipse class="cls-4" cx="28.53" cy="106.48" rx="6.27" ry="6.94"/></svg>